solid bed_fras
facet normal -2.7572487315831205e-10 -0.9999999999999909 1.3518848812134213e-07
  outer loop
    vertex 171.86307471578903 64.75000554766422 10.100074860867494
    vertex 138.52122652240095 64.75000455316764 3.083184974837654e-05
    vertex 171.86307396652177 64.75000454397323 2.1705184874716396e-05
  endloop
endfacet
facet normal -2.7572487315831205e-10 -0.9999999999999909 1.3518848812134213e-07
  outer loop
    vertex 138.52122652240095 64.75000455316764 3.083184974837654e-05
    vertex 171.86307471578903 64.75000554766422 10.100074860867494
    vertex 138.52122727166818 64.75000555685862 10.100083987532368
  endloop
endfacet
facet normal -0.8383198008098446 -0.5451787886277185 -7.458984323983743e-07
  outer loop
    vertex 174.67570345712508 60.42499809963606 10.100066874958564
    vertex 200.90000111698967 20.100002550519275 2.4712055955665292e-05
    vertex 200.89999999999915 20.100001747526843 10.09998608246259
  endloop
endfacet
facet normal -0.8383198008098446 -0.5451787886277185 -7.458984323983743e-07
  outer loop
    vertex 200.90000111698967 20.100002550519275 2.4712055955665292e-05
    vertex 174.67570345712508 60.42499809963606 10.100066874958564
    vertex 174.67571568703957 60.42501320528141 1.778863923406154e-05
  endloop
endfacet
facet normal 0.8410362314203857 0.5409787957304928 2.8603495488379376e-06
  outer loop
    vertex 46.25163831303611 160.54593268158845 2.3353229821487946e-05
    vertex 20.054446930754608 201.27353798802858 10.100112826733001
    vertex 46.25159053389355 160.54589490531342 10.099988791986526
  endloop
endfacet
facet normal 0.8410362314203857 0.5409787957304928 2.8603495488379376e-06
  outer loop
    vertex 20.054446930754608 201.27353798802858 10.100112826733001
    vertex 46.25163831303611 160.54593268158845 2.3353229821487946e-05
    vertex 20.054450579888403 201.2735446186177 5.9671055068311454e-05
  endloop
endfacet
facet normal 8.578483356906082e-08 0.9999999999998925 4.557089280869575e-07
  outer loop
    vertex 49.01752167171649 156.245931865193 10.100010493807838
    vertex 82.90546186274142 156.24593268159242 4.005289813660469e-05
    vertex 49.017523713501326 156.245932681592 1.9518812797414255e-05
  endloop
endfacet
facet normal 8.578483356906082e-08 0.9999999999998925 4.557089280869575e-07
  outer loop
    vertex 82.90546186274142 156.24593268159242 4.005289813660469e-05
    vertex 49.01752167171649 156.245931865193 10.100010493807838
    vertex 82.90545821360762 156.24592605100327 10.100093208576071
  endloop
endfacet
facet normal -0.582385520448911 -0.8129127293685997 -1.3946255786344878e-06
  outer loop
    vertex 82.90545821360762 156.24592605100327 10.100093208576071
    vertex 20.054450579888403 201.2735446186177 5.9671055068311454e-05
    vertex 82.90546186274142 156.24593268159242 4.005289813660469e-05
  endloop
endfacet
facet normal -0.582385520448911 -0.8129127293685997 -1.3946255786344878e-06
  outer loop
    vertex 20.054450579888403 201.2735446186177 5.9671055068311454e-05
    vertex 82.90545821360762 156.24592605100327 10.100093208576071
    vertex 20.054446930754608 201.27353798802858 10.100112826733001
  endloop
endfacet
facet normal 2.3770896231517065e-08 -0.99999999999997 -2.437717064646536e-07
  outer loop
    vertex 82.3822965209132 64.75000132906078 10.100079047597639
    vertex 49.017523713497546 64.75000256395258 3.3066043309248736e-05
    vertex 82.3822960651939 64.75000456865189 2.5891915707814368e-05
  endloop
endfacet
facet normal 2.3770896231517065e-08 -0.99999999999997 -2.437717064646536e-07
  outer loop
    vertex 49.017523713497546 64.75000256395258 3.3066043309248736e-05
    vertex 82.3822965209132 64.75000132906078 10.100079047597639
    vertex 49.01752167171964 64.75000174755645 10.099999636945245
  endloop
endfacet
facet normal -0.5823613336830147 0.8129300566659067 3.2599535698535896e-07
  outer loop
    vertex 20.054449462898006 20.10000174753494 10.099973727163965
    vertex 82.3822960651939 64.75000456865189 2.5891915707814368e-05
    vertex 20.054450579888403 20.100002550527375 1.2356757331731374e-05
  endloop
endfacet
facet normal -0.5823613336830147 0.8129300566659067 3.2599535698535896e-07
  outer loop
    vertex 82.3822960651939 64.75000456865189 2.5891915707814368e-05
    vertex 20.054449462898006 20.10000174753494 10.099973727163965
    vertex 82.3822965209132 64.75000132906078 10.100079047597639
  endloop
endfacet
facet normal 0.5820470160335944 0.8131551334932209 -1.0330595631092069e-07
  outer loop
    vertex 138.52122652240095 64.75000455316764 3.083184974837654e-05
    vertex 200.89999999999915 20.100001747526843 10.09998608246259
    vertex 200.90000111698967 20.100002550519275 2.4712055955665292e-05
  endloop
endfacet
facet normal 0.5820470160335944 0.8131551334932209 -1.0330595631092069e-07
  outer loop
    vertex 200.89999999999915 20.100001747526843 10.09998608246259
    vertex 138.52122652240095 64.75000455316764 3.083184974837654e-05
    vertex 138.52122727166818 64.75000555685862 10.100083987532368
  endloop
endfacet
facet normal 0.8389534720552949 -0.5442031529919363 2.476740194051046e-08
  outer loop
    vertex 20.054450579888403 20.100002550527375 1.2356757331731374e-05
    vertex 46.2120311490121 60.42500304858088 10.10000406261334
    vertex 20.054449462898006 20.10000174753494 10.099973727163965
  endloop
endfacet
facet normal 0.8389534720552949 -0.5442031529919363 2.476740194051046e-08
  outer loop
    vertex 46.2120311490121 60.42500304858088 10.10000406261334
    vertex 20.054450579888403 20.100002550527375 1.2356757331731374e-05
    vertex 46.21203218439564 60.42500582640996 3.133498557585257e-05
  endloop
endfacet
facet normal -0.840307736552864 0.5421096825241863 1.7112052045327734e-06
  outer loop
    vertex 200.928923580202 201.30001136191075 10.1000729464688
    vertex 174.63714526606333 160.54593268158933 6.403029570007826e-05
    vertex 174.63718230892394 160.54589074287048 10.100028988476224
  endloop
endfacet
facet normal -0.840307736552864 0.5421096825241863 1.7112052045327734e-06
  outer loop
    vertex 174.63714526606333 160.54593268158933 6.403029570007826e-05
    vertex 200.928923580202 201.30001136191075 10.1000729464688
    vertex 200.92893223926114 201.30000255018356 1.9790800468262836e-05
  endloop
endfacet
facet normal 0.582071180147537 -0.8131378365540916 2.405217869184417e-06
  outer loop
    vertex 200.92893223926114 201.30000255018356 1.9790800468262836e-05
    vertex 137.98959562452148 156.24594149331918 10.100053155668334
    vertex 137.9896042835806 156.245932681592 0.0
  endloop
endfacet
facet normal 0.582071180147537 -0.8131378365540916 2.405217869184417e-06
  outer loop
    vertex 137.98959562452148 156.24594149331918 10.100053155668334
    vertex 200.92893223926114 201.30000255018356 1.9790800468262836e-05
    vertex 200.928923580202 201.30001136191075 10.1000729464688
  endloop
endfacet
facet normal 1.4211932475441052e-07 0.9999999999998601 -5.094368670324552e-07
  outer loop
    vertex 137.98959562452148 156.24594149331918 10.100053155668334
    vertex 171.8630742506057 156.2459326815923 5.446566848158459e-05
    vertex 137.9896042835806 156.245932681592 0.0
  endloop
endfacet
facet normal 1.4211932475441052e-07 0.9999999999998601 -5.094368670324552e-07
  outer loop
    vertex 171.8630742506057 156.2459326815923 5.446566848158459e-05
    vertex 137.98959562452148 156.24594149331918 10.100053155668334
    vertex 171.86307220882088 156.2459318651933 10.100045440663523
  endloop
endfacet
facet normal 3.794719723824976e-07 -0.9999999999983578 -1.7721455261531583e-06
  outer loop
    vertex 28.017521671717834 140.89592576167746 10.100002698345685
    vertex 20.017521676046176 140.89592628077787 5.754874259899635e-05
    vertex 28.017529503848383 140.8959524005577 4.2968671963429364e-05
  endloop
endfacet
facet normal 3.794719723824976e-07 -0.9999999999983578 -1.7721455261531583e-06
  outer loop
    vertex 20.017521676046176 140.89592628077787 5.754874259899635e-05
    vertex 28.017521671717834 140.89592576167746 10.100002698345685
    vertex 20.0175216717177 140.8959257616772 10.100002700803968
  endloop
endfacet
facet normal 0.9999971056679003 0.0024059624720589915 -6.366578575709377e-07
  outer loop
    vertex 200.89999742214465 140.8959265587649 2.4788008726431816e-05
    vertex 200.86307220881966 156.24593186519337 10.10005369052533
    vertex 200.89999999999682 140.8959257616786 10.100031334802853
  endloop
endfacet
facet normal 0.9999995536634383 -0.0009448135949685905 -4.4146831535363363e-07
  outer loop
    vertex 200.86307220881966 156.24593186519337 10.10005369052533
    vertex 200.89999742214465 140.8959265587649 2.4788008726431816e-05
    vertex 200.8630619767558 156.24591003065945 5.808644752255782e-05
  endloop
endfacet
facet normal -0.9999999999931892 1.8306574037601471e-06 -3.204715337681669e-06
  outer loop
    vertex 3.895589462843011e-12 17.232676376048605 10.100004562760443
    vertex 8.205525870245795e-07 2.030340423628263e-06 9.509344467552152e-06
    vertex 0.0 1.7475571079041792e-06 10.100009509344414
  endloop
endfacet
facet normal -0.9999999999931892 1.8306574037601471e-06 -3.204715337681669e-06
  outer loop
    vertex 8.205525870245795e-07 2.030340423628263e-06 9.509344467552152e-06
    vertex 3.895589462843011e-12 17.232676376048605 10.100004562760443
    vertex 6.391464008138518e-05 17.23264533565093 6.294736283724012e-05
  endloop
endfacet
facet normal 0.9999995661942427 0.0009314561024960515 -9.248966045464448e-07
  outer loop
    vertex 200.86305987378933 64.75002647087425 6.887159876126562e-05
    vertex 200.89999999999893 80.10000785107272 10.100024120788788
    vertex 200.86307220882327 64.75000174755645 10.100040557838787
  endloop
endfacet
facet normal 0.9999971052786286 -0.0024061242702983995 -5.996575091393619e-07
  outer loop
    vertex 200.89999999999893 80.10000785107272 10.100024120788788
    vertex 200.86305987378933 64.75002647087425 6.887159876126562e-05
    vertex 200.90000028336442 80.10000867097179 1.4943870715969854e-05
  endloop
endfacet
facet normal -1.74135046905432e-13 -0.9999999999999931 -1.1865951393360878e-07
  outer loop
    vertex 200.89999999999682 140.8959257616786 10.100031334802853
    vertex 192.86306146908413 140.89592657807896 4.041638408595462e-05
    vertex 200.89999742214465 140.8959265587649 2.4788008726431816e-05
  endloop
endfacet
facet normal -1.74135046905432e-13 -0.9999999999999931 -1.1865951393360878e-07
  outer loop
    vertex 192.86306146908413 140.89592657807896 4.041638408595462e-05
    vertex 200.89999999999682 140.8959257616786 10.100031334802853
    vertex 192.86307220882057 140.89592576167783 10.100049593277115
  endloop
endfacet
facet normal 0.9999999999877849 8.857560900439178e-09 4.9426987178256585e-06
  outer loop
    vertex 100.51755940638438 80.10000844986277 9.260671535063338e-06
    vertex 100.51753353492032 140.8959257616776 10.1000233230036
    vertex 100.51753407344471 80.1000078510721 10.100019104338816
  endloop
endfacet
facet normal 0.9999999999877849 8.857560900439178e-09 4.9426987178256585e-06
  outer loop
    vertex 100.51753353492032 140.8959257616776 10.1000233230036
    vertex 100.51755940638438 80.10000844986277 9.260671535063338e-06
    vertex 100.51755886785999 140.89592636046825 1.3479336316310332e-05
  endloop
endfacet
facet normal -2.1743707049487913e-10 0.9999999999999929 1.1900930225196432e-07
  outer loop
    vertex 192.8630614690863 80.10000866747315 3.3202370014333136e-05
    vertex 200.89999999999893 80.10000785107272 10.100024120788788
    vertex 200.90000028336442 80.10000867097179 1.4943870715969854e-05
  endloop
endfacet
facet normal -2.1743707049487913e-10 0.9999999999999929 1.1900930225196432e-07
  outer loop
    vertex 200.89999999999893 80.10000785107272 10.100024120788788
    vertex 192.8630614690863 80.10000866747315 3.3202370014333136e-05
    vertex 192.86307220882273 80.10000785107196 10.100042379263044
  endloop
endfacet
facet normal 0.9999999999974194 3.051963875615638e-13 -2.271822608537188e-06
  outer loop
    vertex 192.8630614690863 80.10000866747315 3.3202370014333136e-05
    vertex 192.86307220882057 140.89592576167783 10.100049593277115
    vertex 192.86307220882273 80.10000785107196 10.100042379263044
  endloop
endfacet
facet normal 0.9999999999974194 3.051963875615638e-13 -2.271822608537188e-06
  outer loop
    vertex 192.86307220882057 140.89592576167783 10.100049593277115
    vertex 192.8630614690863 80.10000866747315 3.3202370014333136e-05
    vertex 192.86306146908413 140.89592657807896 4.041638408595462e-05
  endloop
endfacet
facet normal 7.661369934847553e-07 0.9999999999989004 -1.2697363463083069e-06
  outer loop
    vertex 20.054445277832574 80.10000782637243 4.439049668317331e-05
    vertex 28.01752167171995 80.10000785107195 10.099995484331613
    vertex 28.017524303092898 80.09999562474908 2.8641853658030304e-05
  endloop
endfacet
facet normal 7.661369934847553e-07 0.9999999999989004 -1.2697363463083069e-06
  outer loop
    vertex 28.01752167171995 80.10000785107195 10.099995484331613
    vertex 20.054445277832574 80.10000782637243 4.439049668317331e-05
    vertex 20.05444946289708 80.10000785107133 10.099991014543605
  endloop
endfacet
facet normal 0.5823855155682445 0.812912732866334 -3.1362177209657943e-07
  outer loop
    vertex 20.05444946289652 221.00000174755462 10.09998893323292
    vertex 110.44029792083145 156.24592943371792 1.552872567045628e-05
    vertex 20.054450566325308 221.0000006285629 1.42115318252546e-05
  endloop
endfacet
facet normal 0.5823855155682445 0.812912732866334 -3.1362177209657943e-07
  outer loop
    vertex 110.44029792083145 156.24592943371792 1.552872567045628e-05
    vertex 20.05444946289652 221.00000174755462 10.09998893323292
    vertex 110.4402969402687 156.24593186519317 10.10002796723568
  endloop
endfacet
facet normal -0.5820711758819762 0.8131378396109774 -4.073719907219222e-07
  outer loop
    vertex 110.4402969402687 156.24593186519317 10.10002796723568
    vertex 200.8999996810705 221.00000062856498 3.3869974824253366e-05
    vertex 110.44029792083145 156.24592943371792 1.552872567045628e-05
  endloop
endfacet
facet normal -0.5820711758819762 0.8131378396109774 -4.073719907219222e-07
  outer loop
    vertex 200.8999996810705 221.00000062856498 3.3869974824253366e-05
    vertex 110.4402969402687 156.24593186519317 10.10002796723568
    vertex 200.8999985776417 221.0000017475567 10.10000859167592
  endloop
endfacet
facet normal -2.4730810377037086e-08 -1.6607314642598503e-08 -0.9999999999999996
  outer loop
    vertex 110.44029792083145 156.24592943371792 1.552872567045628e-05
    vertex 20.054450579888403 201.2735446186177 5.9671055068311454e-05
    vertex 20.054450566325308 221.0000006285629 1.42115318252546e-05
  endloop
endfacet
facet normal -2.4730810377037086e-08 -1.6607314642598503e-08 -0.9999999999999996
  outer loop
    vertex 20.054450579888403 201.2735446186177 5.9671055068311454e-05
    vertex 110.44029792083145 156.24592943371792 1.552872567045628e-05
    vertex 82.90546186274142 156.24593268159242 4.005289813660469e-05
  endloop
endfacet
facet normal -2.4730810377037086e-08 -1.6607314642598503e-08 -0.9999999999999996
  outer loop
    vertex 82.90546186274142 156.24593268159242 4.005289813660469e-05
    vertex 110.44029792083145 156.24592943371792 1.552872567045628e-05
    vertex 100.51755886785999 140.89592636046825 1.3479336316310332e-05
  endloop
endfacet
facet normal -2.4730810377037086e-08 -1.6607314642598503e-08 -0.9999999999999996
  outer loop
    vertex 100.51755886785999 140.89592636046825 1.3479336316310332e-05
    vertex 110.44029792083145 156.24592943371792 1.552872567045628e-05
    vertex 171.86307396652012 140.89592634079216 1.2527321688950118e-05
  endloop
endfacet
facet normal -2.4730810377037086e-08 -1.6607314642598503e-08 -0.9999999999999996
  outer loop
    vertex 171.86307396652012 140.89592634079216 1.2527321688950118e-05
    vertex 110.44029792083145 156.24592943371792 1.552872567045628e-05
    vertex 137.9896042835806 156.245932681592 0.0
  endloop
endfacet
facet normal -2.4730810377037086e-08 -1.6607314642598503e-08 -0.9999999999999996
  outer loop
    vertex 171.86307396652012 140.89592634079216 1.2527321688950118e-05
    vertex 137.9896042835806 156.245932681592 0.0
    vertex 171.8630742506057 156.2459326815923 5.446566848158459e-05
  endloop
endfacet
facet normal -2.4730810377037086e-08 -1.6607314642598503e-08 -0.9999999999999996
  outer loop
    vertex 171.86307396652012 140.89592634079216 1.2527321688950118e-05
    vertex 171.8630742506057 156.2459326815923 5.446566848158459e-05
    vertex 171.86307396652012 80.1000084301864 5.563837906465104e-06
  endloop
endfacet
facet normal -2.4730810377037086e-08 -1.6607314642598503e-08 -0.9999999999999996
  outer loop
    vertex 171.86307396652012 80.1000084301864 5.563837906465104e-06
    vertex 171.8630742506057 156.2459326815923 5.446566848158459e-05
    vertex 171.86307396652177 64.75000454397323 2.1705184874716396e-05
  endloop
endfacet
facet normal -2.4730810377037086e-08 -1.6607314642598503e-08 -0.9999999999999996
  outer loop
    vertex 174.63714526606333 160.54593268158933 6.403029570007826e-05
    vertex 171.8630742506057 156.2459326815923 5.446566848158459e-05
    vertex 171.8630742505921 160.54593268158993 7.696599797077426e-05
  endloop
endfacet
facet normal -2.4730810377037086e-08 -1.6607314642598503e-08 -0.9999999999999996
  outer loop
    vertex 20.054450579888403 20.100002550527375 1.2356757331731374e-05
    vertex 110.44029777924882 64.75000456091252 2.9084127560392704e-05
    vertex 20.05445014127894 0.0 1.6193445934194043e-05
  endloop
endfacet
facet normal -2.4730810377037086e-08 -1.6607314642598503e-08 -0.9999999999999996
  outer loop
    vertex 110.44029777924882 64.75000456091252 2.9084127560392704e-05
    vertex 20.054450579888403 20.100002550527375 1.2356757331731374e-05
    vertex 82.3822960651939 64.75000456865189 2.5891915707814368e-05
  endloop
endfacet
facet normal -2.4730810377037086e-08 -1.6607314642598503e-08 -0.9999999999999996
  outer loop
    vertex 110.44029777924882 64.75000456091252 2.9084127560392704e-05
    vertex 82.3822960651939 64.75000456865189 2.5891915707814368e-05
    vertex 100.51755940638438 80.10000844986277 9.260671535063338e-06
  endloop
endfacet
facet normal -2.4730810377037086e-08 -1.6607314642598503e-08 -0.9999999999999996
  outer loop
    vertex 100.51755940638438 80.10000844986277 9.260671535063338e-06
    vertex 82.3822960651939 64.75000456865189 2.5891915707814368e-05
    vertex 82.90546186274142 156.24593268159242 4.005289813660469e-05
  endloop
endfacet
facet normal -2.4730810377037086e-08 -1.6607314642598503e-08 -0.9999999999999996
  outer loop
    vertex 100.51755940638438 80.10000844986277 9.260671535063338e-06
    vertex 82.90546186274142 156.24593268159242 4.005289813660469e-05
    vertex 100.51755886785999 140.89592636046825 1.3479336316310332e-05
  endloop
endfacet
facet normal -2.4730810377037086e-08 -1.6607314642598503e-08 -0.9999999999999996
  outer loop
    vertex 110.44029777924882 64.75000456091252 2.9084127560392704e-05
    vertex 100.51755940638438 80.10000844986277 9.260671535063338e-06
    vertex 171.86307396652012 80.1000084301864 5.563837906465104e-06
  endloop
endfacet
facet normal -2.4730810377037086e-08 -1.6607314642598503e-08 -0.9999999999999996
  outer loop
    vertex 110.44029777924882 64.75000456091252 2.9084127560392704e-05
    vertex 171.86307396652012 80.1000084301864 5.563837906465104e-06
    vertex 138.52122652240095 64.75000455316764 3.083184974837654e-05
  endloop
endfacet
facet normal -2.4730810377037086e-08 -1.6607314642598503e-08 -0.9999999999999996
  outer loop
    vertex 138.52122652240095 64.75000455316764 3.083184974837654e-05
    vertex 171.86307396652012 80.1000084301864 5.563837906465104e-06
    vertex 171.86307396652177 64.75000454397323 2.1705184874716396e-05
  endloop
endfacet
facet normal -2.4730810377037086e-08 -1.6607314642598503e-08 -0.9999999999999996
  outer loop
    vertex 20.017532659171557 156.24594541664757 2.3770759186922395e-05
    vertex 28.017529503848383 140.8959524005577 4.2968671963429364e-05
    vertex 20.017521676046176 140.89592628077787 5.754874259899635e-05
  endloop
endfacet
facet normal -2.4730810377037086e-08 -1.6607314642598503e-08 -0.9999999999999996
  outer loop
    vertex 28.017529503848383 140.8959524005577 4.2968671963429364e-05
    vertex 20.017532659171557 156.24594541664757 2.3770759186922395e-05
    vertex 20.05445715789847 160.5459042725125 3.86154666901034e-05
  endloop
endfacet
facet normal -2.4730810377037086e-08 -1.6607314642598503e-08 -0.9999999999999996
  outer loop
    vertex 28.017529503848383 140.8959524005577 4.2968671963429364e-05
    vertex 20.05445715789847 160.5459042725125 3.86154666901034e-05
    vertex 28.017531033507396 160.54590427251293 3.331455513622961e-05
  endloop
endfacet
facet normal -2.4730810377037086e-08 -1.6607314642598503e-08 -0.9999999999999996
  outer loop
    vertex 20.054450566325308 221.0000006285629 1.42115318252546e-05
    vertex 1.0987769116907894e-05 204.1036132257974 9.795349635899064e-05
    vertex 8.205525870245795e-07 221.00000203034037 9.509344467552152e-06
  endloop
endfacet
facet normal -2.4730810377037086e-08 -1.6607314642598503e-08 -0.9999999999999996
  outer loop
    vertex 1.0987769116907894e-05 204.1036132257974 9.795349635899064e-05
    vertex 20.054450566325308 221.0000006285629 1.42115318252546e-05
    vertex 20.054450579888403 201.2735446186177 5.9671055068311454e-05
  endloop
endfacet
facet normal -2.4730810377037086e-08 -1.6607314642598503e-08 -0.9999999999999996
  outer loop
    vertex 1.0987769116907894e-05 204.1036132257974 9.795349635899064e-05
    vertex 20.054450579888403 201.2735446186177 5.9671055068311454e-05
    vertex 28.017531033507396 160.54590427251293 3.331455513622961e-05
  endloop
endfacet
facet normal -2.4730810377037086e-08 -1.6607314642598503e-08 -0.9999999999999996
  outer loop
    vertex 28.017531033507396 160.54590427251293 3.331455513622961e-05
    vertex 20.054450579888403 201.2735446186177 5.9671055068311454e-05
    vertex 46.25163831303611 160.54593268158845 2.3353229821487946e-05
  endloop
endfacet
facet normal -2.4730810377037086e-08 -1.6607314642598503e-08 -0.9999999999999996
  outer loop
    vertex 28.017531033507396 160.54590427251293 3.331455513622961e-05
    vertex 46.25163831303611 160.54593268158845 2.3353229821487946e-05
    vertex 28.01758770151704 60.424967038581705 0.00011049866995135326
  endloop
endfacet
facet normal -2.4730810377037086e-08 -1.6607314642598503e-08 -0.9999999999999996
  outer loop
    vertex 28.01758770151704 60.424967038581705 0.00011049866995135326
    vertex 46.25163831303611 160.54593268158845 2.3353229821487946e-05
    vertex 46.21203218439564 60.42500582640996 3.133498557585257e-05
  endloop
endfacet
facet normal -2.4730810377037086e-08 -1.6607314642598503e-08 -0.9999999999999996
  outer loop
    vertex 46.21203218439564 60.42500582640996 3.133498557585257e-05
    vertex 46.25163831303611 160.54593268158845 2.3353229821487946e-05
    vertex 49.054450214570906 60.42500582640983 3.160992099503571e-05
  endloop
endfacet
facet normal -2.4730810377037086e-08 -1.6607314642598503e-08 -0.9999999999999996
  outer loop
    vertex 49.054450214570906 60.42500582640983 3.160992099503571e-05
    vertex 46.25163831303611 160.54593268158845 2.3353229821487946e-05
    vertex 49.017523713497546 64.75000256395258 3.3066043309248736e-05
  endloop
endfacet
facet normal -2.4730810377037086e-08 -1.6607314642598503e-08 -0.9999999999999996
  outer loop
    vertex 6.391464008138518e-05 17.23264533565093 6.294736283724012e-05
    vertex 20.05445014127894 0.0 1.6193445934194043e-05
    vertex 8.205525870245795e-07 2.030340423628263e-06 9.509344467552152e-06
  endloop
endfacet
facet normal -2.4730810377037086e-08 -1.6607314642598503e-08 -0.9999999999999996
  outer loop
    vertex 20.05445014127894 0.0 1.6193445934194043e-05
    vertex 6.391464008138518e-05 17.23264533565093 6.294736283724012e-05
    vertex 20.054450579888403 20.100002550527375 1.2356757331731374e-05
  endloop
endfacet
facet normal -2.4730810377037086e-08 -1.6607314642598503e-08 -0.9999999999999996
  outer loop
    vertex 20.054450579888403 20.100002550527375 1.2356757331731374e-05
    vertex 6.391464008138518e-05 17.23264533565093 6.294736283724012e-05
    vertex 28.01758770151704 60.424967038581705 0.00011049866995135326
  endloop
endfacet
facet normal -2.4730810377037086e-08 -1.6607314642598503e-08 -0.9999999999999996
  outer loop
    vertex 20.054450579888403 20.100002550527375 1.2356757331731374e-05
    vertex 28.01758770151704 60.424967038581705 0.00011049866995135326
    vertex 46.21203218439564 60.42500582640996 3.133498557585257e-05
  endloop
endfacet
facet normal -2.4730810377037086e-08 -1.6607314642598503e-08 -0.9999999999999996
  outer loop
    vertex 28.017524303092898 80.09999562474908 2.8641853658030304e-05
    vertex 20.05446151078884 64.7500022673054 1.3962899558973686e-05
    vertex 20.054445277832574 80.10000782637243 4.439049668317331e-05
  endloop
endfacet
facet normal -2.4730810377037086e-08 -1.6607314642598503e-08 -0.9999999999999996
  outer loop
    vertex 20.05446151078884 64.7500022673054 1.3962899558973686e-05
    vertex 28.017524303092898 80.09999562474908 2.8641853658030304e-05
    vertex 20.054513825890933 60.42496703742692 8.46778548292515e-05
  endloop
endfacet
facet normal -2.4730810377037086e-08 -1.6607314642598503e-08 -0.9999999999999996
  outer loop
    vertex 20.054513825890933 60.42496703742692 8.46778548292515e-05
    vertex 28.017524303092898 80.09999562474908 2.8641853658030304e-05
    vertex 28.01758770151704 60.424967038581705 0.00011049866995135326
  endloop
endfacet
facet normal -2.4730810377037086e-08 -1.6607314642598503e-08 -0.9999999999999996
  outer loop
    vertex 28.01758770151704 60.424967038581705 0.00011049866995135326
    vertex 28.017524303092898 80.09999562474908 2.8641853658030304e-05
    vertex 28.017529503848383 140.8959524005577 4.2968671963429364e-05
  endloop
endfacet
facet normal -2.4730810377037086e-08 -1.6607314642598503e-08 -0.9999999999999996
  outer loop
    vertex 28.01758770151704 60.424967038581705 0.00011049866995135326
    vertex 28.017529503848383 140.8959524005577 4.2968671963429364e-05
    vertex 28.017531033507396 160.54590427251293 3.331455513622961e-05
  endloop
endfacet
facet normal -2.4730810377037086e-08 -1.6607314642598503e-08 -0.9999999999999996
  outer loop
    vertex 46.25163831303611 160.54593268158845 2.3353229821487946e-05
    vertex 49.017523713501326 156.245932681592 1.9518812797414255e-05
    vertex 49.017523713497546 64.75000256395258 3.3066043309248736e-05
  endloop
endfacet
facet normal -2.4730810377037086e-08 -1.6607314642598503e-08 -0.9999999999999996
  outer loop
    vertex 49.017523713501326 156.245932681592 1.9518812797414255e-05
    vertex 46.25163831303611 160.54593268158845 2.3353229821487946e-05
    vertex 49.05445877936756 160.545932681585 4.000120168681963e-05
  endloop
endfacet
facet normal -2.4730810377037086e-08 -1.6607314642598503e-08 -0.9999999999999996
  outer loop
    vertex 82.90546186274142 156.24593268159242 4.005289813660469e-05
    vertex 49.017523778218354 140.89592633450292 3.785513714817514e-05
    vertex 49.017523713501326 156.245932681592 1.9518812797414255e-05
  endloop
endfacet
facet normal -2.4730810377037086e-08 -1.6607314642598503e-08 -0.9999999999999996
  outer loop
    vertex 49.017523778218354 140.89592633450292 3.785513714817514e-05
    vertex 82.90546186274142 156.24593268159242 4.005289813660469e-05
    vertex 69.5175231750623 140.89592647914455 4.230201367913645e-05
  endloop
endfacet
facet normal -2.4730810377037086e-08 -1.6607314642598503e-08 -0.9999999999999996
  outer loop
    vertex 69.5175231750623 140.89592647914455 4.230201367913645e-05
    vertex 82.90546186274142 156.24593268159242 4.005289813660469e-05
    vertex 69.5175254465749 80.100008568539 3.733844229220752e-05
  endloop
endfacet
facet normal -2.4730810377037086e-08 -1.6607314642598503e-08 -0.9999999999999996
  outer loop
    vertex 69.5175254465749 80.100008568539 3.733844229220752e-05
    vertex 82.90546186274142 156.24593268159242 4.005289813660469e-05
    vertex 82.3822960651939 64.75000456865189 2.5891915707814368e-05
  endloop
endfacet
facet normal -2.4730810377037086e-08 -1.6607314642598503e-08 -0.9999999999999996
  outer loop
    vertex 49.017523713497546 64.75000256395258 3.3066043309248736e-05
    vertex 49.01752377822043 80.10000842389745 3.064112308219359e-05
    vertex 82.3822960651939 64.75000456865189 2.5891915707814368e-05
  endloop
endfacet
facet normal -2.4730810377037086e-08 -1.6607314642598503e-08 -0.9999999999999996
  outer loop
    vertex 49.01752377822043 80.10000842389745 3.064112308219359e-05
    vertex 49.017523713497546 64.75000256395258 3.3066043309248736e-05
    vertex 49.017523713501326 156.245932681592 1.9518812797414255e-05
  endloop
endfacet
facet normal -2.4730810377037086e-08 -1.6607314642598503e-08 -0.9999999999999996
  outer loop
    vertex 49.01752377822043 80.10000842389745 3.064112308219359e-05
    vertex 49.017523713501326 156.245932681592 1.9518812797414255e-05
    vertex 49.017523778218354 140.89592633450292 3.785513714817514e-05
  endloop
endfacet
facet normal -2.4730810377037086e-08 -1.6607314642598503e-08 -0.9999999999999996
  outer loop
    vertex 82.3822960651939 64.75000456865189 2.5891915707814368e-05
    vertex 49.01752377822043 80.10000842389745 3.064112308219359e-05
    vertex 69.5175254465749 80.100008568539 3.733844229220752e-05
  endloop
endfacet
facet normal -2.4730810377037086e-08 -1.6607314642598503e-08 -0.9999999999999996
  outer loop
    vertex 200.8999996810705 221.00000062856498 3.3869974824253366e-05
    vertex 137.9896042835806 156.245932681592 0.0
    vertex 110.44029792083145 156.24592943371792 1.552872567045628e-05
  endloop
endfacet
facet normal -2.4730810377037086e-08 -1.6607314642598503e-08 -0.9999999999999996
  outer loop
    vertex 137.9896042835806 156.245932681592 0.0
    vertex 200.8999996810705 221.00000062856498 3.3869974824253366e-05
    vertex 200.92893223926114 201.30000255018356 1.9790800468262836e-05
  endloop
endfacet
facet normal -2.4730810377037086e-08 -1.6607314642598503e-08 -0.9999999999999996
  outer loop
    vertex 200.92893223926114 201.30000255018356 1.9790800468262836e-05
    vertex 200.8999996810705 221.00000062856498 3.3869974824253366e-05
    vertex 221.00000082055203 221.00000203034028 9.509344467552152e-06
  endloop
endfacet
facet normal -2.4730810377037086e-08 -1.6607314642598503e-08 -0.9999999999999996
  outer loop
    vertex 171.86307396652177 64.75000454397323 2.1705184874716396e-05
    vertex 174.67571568703957 60.42501320528141 1.778863923406154e-05
    vertex 171.86307396652006 60.42501320528113 1.3580835120818648e-05
  endloop
endfacet
facet normal -2.4730810377037086e-08 -1.6607314642598503e-08 -0.9999999999999996
  outer loop
    vertex 174.67571568703957 60.42501320528141 1.778863923406154e-05
    vertex 171.86307396652177 64.75000454397323 2.1705184874716396e-05
    vertex 171.8630742506057 156.2459326815923 5.446566848158459e-05
  endloop
endfacet
facet normal -2.4730810377037086e-08 -1.6607314642598503e-08 -0.9999999999999996
  outer loop
    vertex 174.67571568703957 60.42501320528141 1.778863923406154e-05
    vertex 171.8630742506057 156.2459326815923 5.446566848158459e-05
    vertex 174.63714526606333 160.54593268158933 6.403029570007826e-05
  endloop
endfacet
facet normal -2.4730810377037086e-08 -1.6607314642598503e-08 -0.9999999999999996
  outer loop
    vertex 174.67571568703957 60.42501320528141 1.778863923406154e-05
    vertex 174.63714526606333 160.54593268158933 6.403029570007826e-05
    vertex 192.86307736206354 160.54588836156086 3.6955925147502675e-05
  endloop
endfacet
facet normal -2.4730810377037086e-08 -1.6607314642598503e-08 -0.9999999999999996
  outer loop
    vertex 192.86307736206354 160.54588836156086 3.6955925147502675e-05
    vertex 174.63714526606333 160.54593268158933 6.403029570007826e-05
    vertex 200.92893223926114 201.30000255018356 1.9790800468262836e-05
  endloop
endfacet
facet normal -2.4730810377037086e-08 -1.6607314642598503e-08 -0.9999999999999996
  outer loop
    vertex 174.67571568703957 60.42501320528141 1.778863923406154e-05
    vertex 192.86307736206354 160.54588836156086 3.6955925147502675e-05
    vertex 192.86306146908413 140.89592657807896 4.041638408595462e-05
  endloop
endfacet
facet normal -2.4730810377037086e-08 -1.6607314642598503e-08 -0.9999999999999996
  outer loop
    vertex 174.67571568703957 60.42501320528141 1.778863923406154e-05
    vertex 192.86306146908413 140.89592657807896 4.041638408595462e-05
    vertex 192.86305915971974 60.425004155325915 7.725104466559384e-05
  endloop
endfacet
facet normal -2.4730810377037086e-08 -1.6607314642598503e-08 -0.9999999999999996
  outer loop
    vertex 192.86307736206354 160.54588836156086 3.6955925147502675e-05
    vertex 200.92893223926114 201.30000255018356 1.9790800468262836e-05
    vertex 221.0000051531323 204.1601829497274 5.4487291355426176e-05
  endloop
endfacet
facet normal -2.4730810377037086e-08 -1.6607314642598503e-08 -0.9999999999999996
  outer loop
    vertex 221.0000051531323 204.1601829497274 5.4487291355426176e-05
    vertex 200.92893223926114 201.30000255018356 1.9790800468262836e-05
    vertex 221.00000082055203 221.00000203034028 9.509344467552152e-06
  endloop
endfacet
facet normal -2.4730810377037086e-08 -1.6607314642598503e-08 -0.9999999999999996
  outer loop
    vertex 200.88154067267678 160.54588836271267 3.508028977461941e-05
    vertex 200.8630619767558 156.24591003065945 5.808644752255782e-05
    vertex 192.86307736206354 160.54588836156086 3.6955925147502675e-05
  endloop
endfacet
facet normal -2.4730810377037086e-08 -1.6607314642598503e-08 -0.9999999999999996
  outer loop
    vertex 192.86307736206354 160.54588836156086 3.6955925147502675e-05
    vertex 200.89999742214465 140.8959265587649 2.4788008726431816e-05
    vertex 192.86306146908413 140.89592657807896 4.041638408595462e-05
  endloop
endfacet
facet normal -2.4730810377037086e-08 -1.6607314642598503e-08 -0.9999999999999996
  outer loop
    vertex 200.89999742214465 140.8959265587649 2.4788008726431816e-05
    vertex 192.86307736206354 160.54588836156086 3.6955925147502675e-05
    vertex 200.8630619767558 156.24591003065945 5.808644752255782e-05
  endloop
endfacet
facet normal -2.4730810377037086e-08 -1.6607314642598503e-08 -0.9999999999999996
  outer loop
    vertex 200.90000028336442 80.10000867097179 1.4943870715969854e-05
    vertex 200.86305987378933 64.75002647087425 6.887159876126562e-05
    vertex 192.8630614690863 80.10000866747315 3.3202370014333136e-05
  endloop
endfacet
facet normal -2.4730810377037086e-08 -1.6607314642598503e-08 -0.9999999999999996
  outer loop
    vertex 192.86305915971974 60.425004155325915 7.725104466559384e-05
    vertex 192.8630614690863 80.10000866747315 3.3202370014333136e-05
    vertex 200.88152335721463 60.425004156462705 6.963060512142905e-05
  endloop
endfacet
facet normal -2.4730810377037086e-08 -1.6607314642598503e-08 -0.9999999999999996
  outer loop
    vertex 192.8630614690863 80.10000866747315 3.3202370014333136e-05
    vertex 192.86305915971974 60.425004155325915 7.725104466559384e-05
    vertex 192.86306146908413 140.89592657807896 4.041638408595462e-05
  endloop
endfacet
facet normal -2.4730810377037086e-08 -1.6607314642598503e-08 -0.9999999999999996
  outer loop
    vertex 200.88152335721463 60.425004156462705 6.963060512142905e-05
    vertex 192.8630614690863 80.10000866747315 3.3202370014333136e-05
    vertex 200.86305987378933 64.75002647087425 6.887159876126562e-05
  endloop
endfacet
facet normal -2.4730810377037086e-08 -1.6607314642598503e-08 -0.9999999999999996
  outer loop
    vertex 192.86305915971974 60.425004155325915 7.725104466559384e-05
    vertex 200.90000111698967 20.100002550519275 2.4712055955665292e-05
    vertex 174.67571568703957 60.42501320528141 1.778863923406154e-05
  endloop
endfacet
facet normal -2.4730810377037086e-08 -1.6607314642598503e-08 -0.9999999999999996
  outer loop
    vertex 200.90000111698967 20.100002550519275 2.4712055955665292e-05
    vertex 192.86305915971974 60.425004155325915 7.725104466559384e-05
    vertex 220.99998695083264 17.15896235026771 4.652326439702481e-06
  endloop
endfacet
facet normal -2.4730810377037086e-08 -1.6607314642598503e-08 -0.9999999999999996
  outer loop
    vertex 200.90000111698967 20.100002550519275 2.4712055955665292e-05
    vertex 220.99998695083264 17.15896235026771 4.652326439702481e-06
    vertex 200.90000121362104 1.3634537943119085e-12 1.5564856237921933e-05
  endloop
endfacet
facet normal -2.4730810377037086e-08 -1.6607314642598503e-08 -0.9999999999999996
  outer loop
    vertex 200.90000121362104 1.3634537943119085e-12 1.5564856237921933e-05
    vertex 220.99998695083264 17.15896235026771 4.652326439702481e-06
    vertex 221.00000082055203 2.0303405138671904e-06 9.509344467552152e-06
  endloop
endfacet
facet normal -2.4730810377037086e-08 -1.6607314642598503e-08 -0.9999999999999996
  outer loop
    vertex 138.52122652240095 64.75000455316764 3.083184974837654e-05
    vertex 200.90000121362104 1.3634537943119085e-12 1.5564856237921933e-05
    vertex 110.44029777924882 64.75000456091252 2.9084127560392704e-05
  endloop
endfacet
facet normal -2.4730810377037086e-08 -1.6607314642598503e-08 -0.9999999999999996
  outer loop
    vertex 200.90000121362104 1.3634537943119085e-12 1.5564856237921933e-05
    vertex 138.52122652240095 64.75000455316764 3.083184974837654e-05
    vertex 200.90000111698967 20.100002550519275 2.4712055955665292e-05
  endloop
endfacet
facet normal 3.494929786025323e-08 0.9999999999999913 -1.282413046248431e-07
  outer loop
    vertex 0.0 221.00000174755706 10.100009509344414
    vertex 20.054450566325308 221.0000006285629 1.42115318252546e-05
    vertex 8.205525870245795e-07 221.00000203034037 9.509344467552152e-06
  endloop
endfacet
facet normal 3.494929786025323e-08 0.9999999999999913 -1.282413046248431e-07
  outer loop
    vertex 20.054450566325308 221.0000006285629 1.42115318252546e-05
    vertex 0.0 221.00000174755706 10.100009509344414
    vertex 20.05444946289652 221.00000174755462 10.09998893323292
  endloop
endfacet
facet normal 0.5823613336292218 -0.8129300567044931 -1.5461995304570744e-07
  outer loop
    vertex 110.44029777924882 64.75000456091252 2.9084127560392704e-05
    vertex 20.05444946289599 1.7475562323045865e-06 10.10000221697213
    vertex 20.05445014127894 0.0 1.6193445934194043e-05
  endloop
endfacet
facet normal 0.5823613336292218 -0.8129300567044931 -1.5461995304570744e-07
  outer loop
    vertex 20.05444946289599 1.7475562323045865e-06 10.10000221697213
    vertex 110.44029777924882 64.75000456091252 2.9084127560392704e-05
    vertex 110.44029694027189 64.75000174755644 10.100017110373088
  endloop
endfacet
facet normal -0.9999907828367146 0.004293511528902887 -6.049983156004819e-07
  outer loop
    vertex 20.01752167171767 156.24593186519297 10.100002243945987
    vertex 20.017521676046176 140.89592628077787 5.754874259899635e-05
    vertex 20.0175216717177 140.8959257616772 10.100002700803968
  endloop
endfacet
facet normal -0.9999999999999876 8.361196489739743e-08 -1.336775816638979e-07
  outer loop
    vertex 20.017521676046176 140.89592628077787 5.754874259899635e-05
    vertex 20.01752167171767 156.24593186519297 10.100002243945987
    vertex 20.017532659171557 156.24594541664757 2.3770759186922395e-05
  endloop
endfacet
facet normal 5.050593161026465e-08 -0.9999999999999805 1.9109777815652277e-07
  outer loop
    vertex 220.99999999999937 1.7475571984956025e-06 10.100009509344414
    vertex 200.90000121362104 1.3634537943119085e-12 1.5564856237921933e-05
    vertex 221.00000082055203 2.0303405138671904e-06 9.509344467552152e-06
  endloop
endfacet
facet normal 5.050593161026465e-08 -0.9999999999999805 1.9109777815652277e-07
  outer loop
    vertex 200.90000121362104 1.3634537943119085e-12 1.5564856237921933e-05
    vertex 220.99999999999937 1.7475571984956025e-06 10.100009509344414
    vertex 200.9000005352381 1.7475575957583808e-06 10.100001588382433
  endloop
endfacet
facet normal -0.5820469862824976 -0.8131551547886939 -1.9333756764285002e-07
  outer loop
    vertex 200.9000005352381 1.7475575957583808e-06 10.100001588382433
    vertex 110.44029777924882 64.75000456091252 2.9084127560392704e-05
    vertex 200.90000121362104 1.3634537943119085e-12 1.5564856237921933e-05
  endloop
endfacet
facet normal -0.5820469862824976 -0.8131551547886939 -1.9333756764285002e-07
  outer loop
    vertex 110.44029777924882 64.75000456091252 2.9084127560392704e-05
    vertex 200.9000005352381 1.7475575957583808e-06 10.100001588382433
    vertex 110.44029694027189 64.75000174755644 10.100017110373088
  endloop
endfacet
facet normal -0.9999999999999183 2.7691933096809595e-08 4.034143601931768e-07
  outer loop
    vertex 0.0 221.00000174755706 10.100009509344414
    vertex 1.0987769116907894e-05 204.1036132257974 9.795349635899064e-05
    vertex 3.1523219380606933e-10 204.1035996743429 10.100076426683158
  endloop
endfacet
facet normal -0.9999999999999183 2.7691933096809595e-08 4.034143601931768e-07
  outer loop
    vertex 1.0987769116907894e-05 204.1036132257974 9.795349635899064e-05
    vertex 0.0 221.00000174755706 10.100009509344414
    vertex 8.205525870245795e-07 221.00000203034037 9.509344467552152e-06
  endloop
endfacet
facet normal 0.9999999999998879 1.2381909881257516e-07 -4.575221835800943e-07
  outer loop
    vertex 221.00000082055203 2.0303405138671904e-06 9.509344467552152e-06
    vertex 220.9999999999172 17.158956297611788 10.099980598030836
    vertex 220.99999999999937 1.7475571984956025e-06 10.100009509344414
  endloop
endfacet
facet normal 0.9999999999998879 1.2381909881257516e-07 -4.575221835800943e-07
  outer loop
    vertex 220.9999999999172 17.158956297611788 10.099980598030836
    vertex 221.00000082055203 2.0303405138671904e-06 9.509344467552152e-06
    vertex 220.99998695083264 17.15896235026771 4.652326439702481e-06
  endloop
endfacet
facet normal -5.062071603474068e-08 -0.9999999999999805 1.9109777549055202e-07
  outer loop
    vertex 20.05445014127894 0.0 1.6193445934194043e-05
    vertex 0.0 1.7475571079041792e-06 10.100009509344414
    vertex 8.205525870245795e-07 2.030340423628263e-06 9.509344467552152e-06
  endloop
endfacet
facet normal -5.062071603474068e-08 -0.9999999999999805 1.9109777549055202e-07
  outer loop
    vertex 0.0 1.7475571079041792e-06 10.100009509344414
    vertex 20.05445014127894 0.0 1.6193445934194043e-05
    vertex 20.05444946289599 1.7475562323045865e-06 10.10000221697213
  endloop
endfacet
facet normal -0.9999999999999762 2.5057285017701167e-14 -2.1876702677285235e-07
  outer loop
    vertex 171.86307225328537 140.8959257719302 10.100022407079765
    vertex 171.86307396652012 80.1000084301864 5.563837906465104e-06
    vertex 171.86307225328537 80.10000786132443 10.100015443595982
  endloop
endfacet
facet normal -0.9999999999999762 2.5057285017701167e-14 -2.1876702677285235e-07
  outer loop
    vertex 171.86307396652012 80.1000084301864 5.563837906465104e-06
    vertex 171.86307225328537 140.8959257719302 10.100022407079765
    vertex 171.86307396652012 140.89592634079216 1.2527321688950118e-05
  endloop
endfacet
facet normal 4.758913930264508e-11 -0.9999999999999976 -7.114698950912756e-08
  outer loop
    vertex 171.86307225328537 140.8959257719302 10.100022407079765
    vertex 100.51755886785999 140.89592636046825 1.3479336316310332e-05
    vertex 171.86307396652012 140.89592634079216 1.2527321688950118e-05
  endloop
endfacet
facet normal 4.758913930264508e-11 -0.9999999999999976 -7.114698950912756e-08
  outer loop
    vertex 100.51755886785999 140.89592636046825 1.3479336316310332e-05
    vertex 171.86307225328537 140.8959257719302 10.100022407079765
    vertex 100.51753353492032 140.8959257616776 10.1000233230036
  endloop
endfacet
facet normal -4.7586872420049286e-11 0.9999999999999976 7.114698766708203e-08
  outer loop
    vertex 100.51755940638438 80.10000844986277 9.260671535063338e-06
    vertex 171.86307225328537 80.10000786132443 10.100015443595982
    vertex 171.86307396652012 80.1000084301864 5.563837906465104e-06
  endloop
endfacet
facet normal -4.7586872420049286e-11 0.9999999999999976 7.114698766708203e-08
  outer loop
    vertex 171.86307225328537 80.10000786132443 10.100015443595982
    vertex 100.51755940638438 80.10000844986277 9.260671535063338e-06
    vertex 100.51753407344471 80.1000078510721 10.100019104338816
  endloop
endfacet
facet normal 0.9999999999999558 -9.317476885416988e-15 2.9742251232843023e-07
  outer loop
    vertex 49.01752377822043 80.10000842389745 3.064112308219359e-05
    vertex 49.01752167171703 140.89592576167746 10.100008672383575
    vertex 49.0175216717191 80.10000785107198 10.100001458369508
  endloop
endfacet
facet normal 0.9999999999999558 -9.317476885416988e-15 2.9742251232843023e-07
  outer loop
    vertex 49.01752167171703 140.89592576167746 10.100008672383575
    vertex 49.01752377822043 80.10000842389745 3.064112308219359e-05
    vertex 49.017523778218354 140.89592633450292 3.785513714817514e-05
  endloop
endfacet
facet normal 0.999999999999948 1.286386196017576e-07 2.9573225831794266e-07
  outer loop
    vertex 221.00000082055203 221.00000203034028 9.509344467552152e-06
    vertex 220.99999999989276 204.16018533405614 10.100058643749605
    vertex 221.0000051531323 204.1601829497274 5.4487291355426176e-05
  endloop
endfacet
facet normal 0.999999999999948 1.286386196017576e-07 2.9573225831794266e-07
  outer loop
    vertex 220.99999999989276 204.16018533405614 10.100058643749605
    vertex 221.00000082055203 221.00000203034028 9.509344467552152e-06
    vertex 220.99999999999937 221.000001747557 10.100009509344414
  endloop
endfacet
facet normal 7.055704676896348e-09 -0.9999999999999977 -6.994499689969964e-08
  outer loop
    vertex 69.5175231750623 140.89592647914455 4.230201367913645e-05
    vertex 49.01752167171703 140.89592576167746 10.100008672383575
    vertex 49.017523778218354 140.89592633450292 3.785513714817514e-05
  endloop
endfacet
facet normal 7.055704676896348e-09 -0.9999999999999977 -6.994499689969964e-08
  outer loop
    vertex 49.01752167171703 140.89592576167746 10.100008672383575
    vertex 69.5175231750623 140.89592647914455 4.230201367913645e-05
    vertex 69.51752106856098 140.8959259063191 10.100013119260106
  endloop
endfacet
facet normal -3.48701122365319e-08 0.9999999999999911 -1.2824131392075053e-07
  outer loop
    vertex 200.8999996810705 221.00000062856498 3.3869974824253366e-05
    vertex 220.99999999999937 221.000001747557 10.100009509344414
    vertex 221.00000082055203 221.00000203034028 9.509344467552152e-06
  endloop
endfacet
facet normal -3.48701122365319e-08 0.9999999999999911 -1.2824131392075053e-07
  outer loop
    vertex 220.99999999999937 221.000001747557 10.100009509344414
    vertex 200.8999996810705 221.00000062856498 3.3869974824253366e-05
    vertex 200.8999985776417 221.0000017475567 10.10000859167592
  endloop
endfacet
facet normal -0.9999999999999551 -3.736288885583694e-08 -2.974225155149219e-07
  outer loop
    vertex 69.51752106856098 140.8959259063191 10.100013119260106
    vertex 69.5175254465749 80.100008568539 3.733844229220752e-05
    vertex 69.51752334007358 80.10000799571353 10.100008155688718
  endloop
endfacet
facet normal -0.9999999999999551 -3.736288885583694e-08 -2.974225155149219e-07
  outer loop
    vertex 69.5175254465749 80.100008568539 3.733844229220752e-05
    vertex 69.51752106856098 140.8959259063191 10.100013119260106
    vertex 69.5175231750623 140.89592647914455 4.230201367913645e-05
  endloop
endfacet
facet normal -7.055707721824745e-09 0.9999999999999977 6.994499689969874e-08
  outer loop
    vertex 49.0175216717191 80.10000785107198 10.100001458369508
    vertex 69.5175254465749 80.100008568539 3.733844229220752e-05
    vertex 49.01752377822043 80.10000842389745 3.064112308219359e-05
  endloop
endfacet
facet normal -7.055707721824745e-09 0.9999999999999977 6.994499689969874e-08
  outer loop
    vertex 69.5175254465749 80.100008568539 3.733844229220752e-05
    vertex 49.0175216717191 80.10000785107198 10.100001458369508
    vertex 69.51752334007358 80.10000799571353 10.100008155688718
  endloop
endfacet
facet normal -0.9999999999993636 2.689723054101062e-07 -1.0957143060826426e-06
  outer loop
    vertex 28.01752167171995 80.10000785107195 10.099995484331613
    vertex 28.017529503848383 140.8959524005577 4.2968671963429364e-05
    vertex 28.017524303092898 80.09999562474908 2.8641853658030304e-05
  endloop
endfacet
facet normal -0.9999999999993636 2.689723054101062e-07 -1.0957143060826426e-06
  outer loop
    vertex 28.017529503848383 140.8959524005577 4.2968671963429364e-05
    vertex 28.01752167171995 80.10000785107195 10.099995484331613
    vertex 28.017521671717834 140.89592576167746 10.100002698345685
  endloop
endfacet
facet normal -0.9999999999997846 -5.287600057728855e-07 -3.892512258358077e-07
  outer loop
    vertex 20.05444946289708 80.10000785107133 10.099991014543605
    vertex 20.05446151078884 64.7500022673054 1.3962899558973686e-05
    vertex 20.054449462897445 64.7500017475564 10.099975204980728
  endloop
endfacet
facet normal -0.9999999999997846 -5.287600057728855e-07 -3.892512258358077e-07
  outer loop
    vertex 20.05446151078884 64.7500022673054 1.3962899558973686e-05
    vertex 20.05444946289708 80.10000785107133 10.099991014543605
    vertex 20.054445277832574 80.10000782637243 4.439049668317331e-05
  endloop
endfacet
facet normal 0.9999635529276613 0.008537728987423596 1.6145483238628004e-07
  outer loop
    vertex 49.054450214570906 60.42500582640983 3.160992099503571e-05
    vertex 49.01752167171964 64.75000174755645 10.099999636945245
    vertex 49.054449179187365 60.425003048580756 10.100004337548759
  endloop
endfacet
facet normal 0.9999635529276613 0.008537728987423596 1.6145483238628004e-07
  outer loop
    vertex 49.01752167171964 64.75000174755645 10.099999636945245
    vertex 49.054450214570906 60.42500582640983 3.160992099503571e-05
    vertex 49.017523713497546 64.75000256395258 3.3066043309248736e-05
  endloop
endfacet
facet normal -1.1007295240285329e-14 -0.9999999999999432 -3.375017721869661e-07
  outer loop
    vertex 49.054450214570906 60.42500582640983 3.160992099503571e-05
    vertex 46.2120311490121 60.42500304858088 10.10000406261334
    vertex 46.21203218439564 60.42500582640996 3.133498557585257e-05
  endloop
endfacet
facet normal -1.1007295240285329e-14 -0.9999999999999432 -3.375017721869661e-07
  outer loop
    vertex 46.2120311490121 60.42500304858088 10.10000406261334
    vertex 49.054450214570906 60.42500582640983 3.160992099503571e-05
    vertex 49.054449179187365 60.425003048580756 10.100004337548759
  endloop
endfacet
facet normal -0.99999999999864 1.5004884438135453e-06 -6.848371796968614e-07
  outer loop
    vertex 171.86307471578903 64.75000554766422 10.100074860867494
    vertex 171.86307396652006 60.42501320528113 1.3580835120818648e-05
    vertex 171.8630617366056 60.424998099635786 10.100062667154452
  endloop
endfacet
facet normal -0.99999999999864 1.5004884438135453e-06 -6.848371796968614e-07
  outer loop
    vertex 171.86307396652006 60.42501320528113 1.3580835120818648e-05
    vertex 171.86307471578903 64.75000554766422 10.100074860867494
    vertex 171.86307396652177 64.75000454397323 2.1705184874716396e-05
  endloop
endfacet
facet normal 2.910507261398197e-12 -0.9999999999982359 -1.8784661292893676e-06
  outer loop
    vertex 174.67571568703957 60.42501320528141 1.778863923406154e-05
    vertex 171.8630617366056 60.424998099635786 10.100062667154452
    vertex 171.86307396652006 60.42501320528113 1.3580835120818648e-05
  endloop
endfacet
facet normal 2.910507261398197e-12 -0.9999999999982359 -1.8784661292893676e-06
  outer loop
    vertex 171.8630617366056 60.424998099635786 10.100062667154452
    vertex 174.67571568703957 60.42501320528141 1.778863923406154e-05
    vertex 174.67570345712508 60.42499809963606 10.100066874958564
  endloop
endfacet
facet normal 2.4619743965667942e-11 0.9999999999863098 5.232634762941842e-06
  outer loop
    vertex 171.8630742505921 160.54593268158993 7.696599797077426e-05
    vertex 174.63718230892394 160.54589074287048 10.100028988476224
    vertex 174.63714526606333 160.54593268158933 6.403029570007826e-05
  endloop
endfacet
facet normal 2.4619743965667942e-11 0.9999999999863098 5.232634762941842e-06
  outer loop
    vertex 174.63718230892394 160.54589074287048 10.100028988476224
    vertex 171.8630742505921 160.54593268158993 7.696599797077426e-05
    vertex 171.8631112934527 160.54589074287108 10.100041924178493
  endloop
endfacet
facet normal -0.999999999987208 4.5447181456477066e-06 2.2202788604414233e-06
  outer loop
    vertex 171.8631112934527 160.54589074287108 10.100041924178493
    vertex 171.8630742506057 156.2459326815923 5.446566848158459e-05
    vertex 171.86307220882088 156.2459318651933 10.100045440663523
  endloop
endfacet
facet normal -0.999999999987208 4.5447181456477066e-06 2.2202788604414233e-06
  outer loop
    vertex 171.8630742506057 156.2459326815923 5.446566848158459e-05
    vertex 171.8631112934527 160.54589074287108 10.100041924178493
    vertex 171.8630742505921 160.54593268158993 7.696599797077426e-05
  endloop
endfacet
facet normal 0.9999631571958795 -0.008583952555976222 3.060379521207077e-06
  outer loop
    vertex 49.017523713501326 156.245932681592 1.9518812797414255e-05
    vertex 49.054411000224995 160.54589490530995 10.100005439958393
    vertex 49.01752167171649 156.245931865193 10.100010493807838
  endloop
endfacet
facet normal 0.9999631571958795 -0.008583952555976222 3.060379521207077e-06
  outer loop
    vertex 49.054411000224995 160.54589490530995 10.100005439958393
    vertex 49.017523713501326 156.245932681592 1.9518812797414255e-05
    vertex 49.05445877936756 160.545932681585 4.000120168681963e-05
  endloop
endfacet
facet normal -2.6750369823897812e-11 0.9999999999888971 4.712326724577889e-06
  outer loop
    vertex 46.25159053389355 160.54589490531342 10.099988791986526
    vertex 49.05445877936756 160.545932681585 4.000120168681963e-05
    vertex 46.25163831303611 160.54593268158845 2.3353229821487946e-05
  endloop
endfacet
facet normal -2.6750369823897812e-11 0.9999999999888971 4.712326724577889e-06
  outer loop
    vertex 49.05445877936756 160.545932681585 4.000120168681963e-05
    vertex 46.25159053389355 160.54589490531342 10.099988791986526
    vertex 49.054411000224995 160.54589490530995 10.100005439958393
  endloop
endfacet
facet normal -9.627303309523154e-08 -7.686472391643092e-08 0.9999999999999925
  outer loop
    vertex 110.44029694027189 64.75000174755644 10.100017110373088
    vertex 20.054449462898006 20.10000174753494 10.099973727163965
    vertex 20.05444946289599 1.7475562323045865e-06 10.10000221697213
  endloop
endfacet
facet normal -9.627303309523154e-08 -7.686472391643092e-08 0.9999999999999925
  outer loop
    vertex 20.054449462898006 20.10000174753494 10.099973727163965
    vertex 110.44029694027189 64.75000174755644 10.100017110373088
    vertex 82.3822965209132 64.75000132906078 10.100079047597639
  endloop
endfacet
facet normal -9.627303309523154e-08 -7.686472391643092e-08 0.9999999999999925
  outer loop
    vertex 82.3822965209132 64.75000132906078 10.100079047597639
    vertex 110.44029694027189 64.75000174755644 10.100017110373088
    vertex 100.51753407344471 80.1000078510721 10.100019104338816
  endloop
endfacet
facet normal -9.627303309523154e-08 -7.686472391643092e-08 0.9999999999999925
  outer loop
    vertex 82.3822965209132 64.75000132906078 10.100079047597639
    vertex 100.51753407344471 80.1000078510721 10.100019104338816
    vertex 82.90545821360762 156.24592605100327 10.100093208576071
  endloop
endfacet
facet normal -9.627303309523154e-08 -7.686472391643092e-08 0.9999999999999925
  outer loop
    vertex 82.90545821360762 156.24592605100327 10.100093208576071
    vertex 100.51753407344471 80.1000078510721 10.100019104338816
    vertex 100.51753353492032 140.8959257616776 10.1000233230036
  endloop
endfacet
facet normal -9.627303309523154e-08 -7.686472391643092e-08 0.9999999999999925
  outer loop
    vertex 100.51753407344471 80.1000078510721 10.100019104338816
    vertex 110.44029694027189 64.75000174755644 10.100017110373088
    vertex 171.86307225328537 80.10000786132443 10.100015443595982
  endloop
endfacet
facet normal -9.627303309523154e-08 -7.686472391643092e-08 0.9999999999999925
  outer loop
    vertex 171.86307225328537 80.10000786132443 10.100015443595982
    vertex 110.44029694027189 64.75000174755644 10.100017110373088
    vertex 138.52122727166818 64.75000555685862 10.100083987532368
  endloop
endfacet
facet normal -9.627303309523154e-08 -7.686472391643092e-08 0.9999999999999925
  outer loop
    vertex 171.86307225328537 80.10000786132443 10.100015443595982
    vertex 138.52122727166818 64.75000555685862 10.100083987532368
    vertex 171.86307471578903 64.75000554766422 10.100074860867494
  endloop
endfacet
facet normal -9.627303309523154e-08 -7.686472391643092e-08 0.9999999999999925
  outer loop
    vertex 171.86307225328537 80.10000786132443 10.100015443595982
    vertex 171.86307471578903 64.75000554766422 10.100074860867494
    vertex 171.86307225328537 140.8959257719302 10.100022407079765
  endloop
endfacet
facet normal -9.627303309523154e-08 -7.686472391643092e-08 0.9999999999999925
  outer loop
    vertex 200.9000005352381 1.7475575957583808e-06 10.100001588382433
    vertex 138.52122727166818 64.75000555685862 10.100083987532368
    vertex 110.44029694027189 64.75000174755644 10.100017110373088
  endloop
endfacet
facet normal -9.627303309523154e-08 -7.686472391643092e-08 0.9999999999999925
  outer loop
    vertex 138.52122727166818 64.75000555685862 10.100083987532368
    vertex 200.9000005352381 1.7475575957583808e-06 10.100001588382433
    vertex 200.89999999999915 20.100001747526843 10.09998608246259
  endloop
endfacet
facet normal -9.627303309523154e-08 -7.686472391643092e-08 0.9999999999999925
  outer loop
    vertex 200.89999999999915 20.100001747526843 10.09998608246259
    vertex 192.8630722088044 60.42499810267001 10.10005319674906
    vertex 174.67570345712508 60.42499809963606 10.100066874958564
  endloop
endfacet
facet normal -9.627303309523154e-08 -7.686472391643092e-08 0.9999999999999925
  outer loop
    vertex 192.8630722088044 60.42499810267001 10.10005319674906
    vertex 200.89999999999915 20.100001747526843 10.09998608246259
    vertex 220.9999999999172 17.158956297611788 10.099980598030836
  endloop
endfacet
facet normal -9.627303309523154e-08 -7.686472391643092e-08 0.9999999999999925
  outer loop
    vertex 220.9999999999172 17.158956297611788 10.099980598030836
    vertex 200.89999999999915 20.100001747526843 10.09998608246259
    vertex 200.9000005352381 1.7475575957583808e-06 10.100001588382433
  endloop
endfacet
facet normal -9.627303309523154e-08 -7.686472391643092e-08 0.9999999999999925
  outer loop
    vertex 220.9999999999172 17.158956297611788 10.099980598030836
    vertex 200.9000005352381 1.7475575957583808e-06 10.100001588382433
    vertex 220.99999999999937 1.7475571984956025e-06 10.100009509344414
  endloop
endfacet
facet normal -9.627303309523154e-08 -7.686472391643092e-08 0.9999999999999925
  outer loop
    vertex 174.67570345712508 60.42499809963606 10.100066874958564
    vertex 171.86307471578903 64.75000554766422 10.100074860867494
    vertex 171.8630617366056 60.424998099635786 10.100062667154452
  endloop
endfacet
facet normal -9.627303309523154e-08 -7.686472391643092e-08 0.9999999999999925
  outer loop
    vertex 171.86307471578903 64.75000554766422 10.100074860867494
    vertex 174.67570345712508 60.42499809963606 10.100066874958564
    vertex 171.8631112934527 160.54589074287108 10.100041924178493
  endloop
endfacet
facet normal -9.627303309523154e-08 -7.686472391643092e-08 0.9999999999999925
  outer loop
    vertex 171.8631112934527 160.54589074287108 10.100041924178493
    vertex 174.67570345712508 60.42499809963606 10.100066874958564
    vertex 174.63718230892394 160.54589074287048 10.100028988476224
  endloop
endfacet
facet normal -9.627303309523154e-08 -7.686472391643092e-08 0.9999999999999925
  outer loop
    vertex 174.63718230892394 160.54589074287048 10.100028988476224
    vertex 174.67570345712508 60.42499809963606 10.100066874958564
    vertex 192.86307220882404 160.54589074588944 10.100041112383396
  endloop
endfacet
facet normal -9.627303309523154e-08 -7.686472391643092e-08 0.9999999999999925
  outer loop
    vertex 174.63718230892394 160.54589074287048 10.100028988476224
    vertex 192.86307220882404 160.54589074588944 10.100041112383396
    vertex 200.928923580202 201.30001136191075 10.1000729464688
  endloop
endfacet
facet normal -9.627303309523154e-08 -7.686472391643092e-08 0.9999999999999925
  outer loop
    vertex 192.86307220882404 160.54589074588944 10.100041112383396
    vertex 174.67570345712508 60.42499809963606 10.100066874958564
    vertex 192.8630722088044 60.42499810267001 10.10005319674906
  endloop
endfacet
facet normal -9.627303309523154e-08 -7.686472391643092e-08 0.9999999999999925
  outer loop
    vertex 192.86307220882404 160.54589074588944 10.100041112383396
    vertex 192.8630722088044 60.42499810267001 10.10005319674906
    vertex 192.86307220882057 140.89592576167783 10.100049593277115
  endloop
endfacet
facet normal -9.627303309523154e-08 -7.686472391643092e-08 0.9999999999999925
  outer loop
    vertex 200.928923580202 201.30001136191075 10.1000729464688
    vertex 192.86307220882404 160.54589074588944 10.100041112383396
    vertex 220.99999999989276 204.16018533405614 10.100058643749605
  endloop
endfacet
facet normal -9.627303309523154e-08 -7.686472391643092e-08 0.9999999999999925
  outer loop
    vertex 137.98959562452148 156.24594149331918 10.100053155668334
    vertex 200.8999985776417 221.0000017475567 10.10000859167592
    vertex 110.4402969402687 156.24593186519317 10.10002796723568
  endloop
endfacet
facet normal -9.627303309523154e-08 -7.686472391643092e-08 0.9999999999999925
  outer loop
    vertex 200.8999985776417 221.0000017475567 10.10000859167592
    vertex 137.98959562452148 156.24594149331918 10.100053155668334
    vertex 200.928923580202 201.30001136191075 10.1000729464688
  endloop
endfacet
facet normal -9.627303309523154e-08 -7.686472391643092e-08 0.9999999999999925
  outer loop
    vertex 200.8999985776417 221.0000017475567 10.10000859167592
    vertex 200.928923580202 201.30001136191075 10.1000729464688
    vertex 220.99999999999937 221.000001747557 10.100009509344414
  endloop
endfacet
facet normal -9.627303309523154e-08 -7.686472391643092e-08 0.9999999999999925
  outer loop
    vertex 220.99999999999937 221.000001747557 10.100009509344414
    vertex 200.928923580202 201.30001136191075 10.1000729464688
    vertex 220.99999999989276 204.16018533405614 10.100058643749605
  endloop
endfacet
facet normal -9.627303309523154e-08 -7.686472391643092e-08 0.9999999999999925
  outer loop
    vertex 3.1523219380606933e-10 204.1035996743429 10.100076426683158
    vertex 20.05444946289652 221.00000174755462 10.09998893323292
    vertex 0.0 221.00000174755706 10.100009509344414
  endloop
endfacet
facet normal -9.627303309523154e-08 -7.686472391643092e-08 0.9999999999999925
  outer loop
    vertex 20.05444946289652 221.00000174755462 10.09998893323292
    vertex 3.1523219380606933e-10 204.1035996743429 10.100076426683158
    vertex 20.054446930754608 201.27353798802858 10.100112826733001
  endloop
endfacet
facet normal -9.627303309523154e-08 -7.686472391643092e-08 0.9999999999999925
  outer loop
    vertex 20.05444946289652 221.00000174755462 10.09998893323292
    vertex 20.054446930754608 201.27353798802858 10.100112826733001
    vertex 82.90545821360762 156.24592605100327 10.100093208576071
  endloop
endfacet
facet normal -9.627303309523154e-08 -7.686472391643092e-08 0.9999999999999925
  outer loop
    vertex 20.05444946289652 221.00000174755462 10.09998893323292
    vertex 82.90545821360762 156.24592605100327 10.100093208576071
    vertex 110.4402969402687 156.24593186519317 10.10002796723568
  endloop
endfacet
facet normal -9.627303309523154e-08 -7.686472391643092e-08 0.9999999999999925
  outer loop
    vertex 110.4402969402687 156.24593186519317 10.10002796723568
    vertex 82.90545821360762 156.24592605100327 10.100093208576071
    vertex 100.51753353492032 140.8959257616776 10.1000233230036
  endloop
endfacet
facet normal -9.627303309523154e-08 -7.686472391643092e-08 0.9999999999999925
  outer loop
    vertex 110.4402969402687 156.24593186519317 10.10002796723568
    vertex 100.51753353492032 140.8959257616776 10.1000233230036
    vertex 171.86307225328537 140.8959257719302 10.100022407079765
  endloop
endfacet
facet normal -9.627303309523154e-08 -7.686472391643092e-08 0.9999999999999925
  outer loop
    vertex 110.4402969402687 156.24593186519317 10.10002796723568
    vertex 171.86307225328537 140.8959257719302 10.100022407079765
    vertex 137.98959562452148 156.24594149331918 10.100053155668334
  endloop
endfacet
facet normal -9.627303309523154e-08 -7.686472391643092e-08 0.9999999999999925
  outer loop
    vertex 137.98959562452148 156.24594149331918 10.100053155668334
    vertex 171.86307225328537 140.8959257719302 10.100022407079765
    vertex 171.86307220882088 156.2459318651933 10.100045440663523
  endloop
endfacet
facet normal -9.627303309523154e-08 -7.686472391643092e-08 0.9999999999999925
  outer loop
    vertex 171.86307220882088 156.2459318651933 10.100045440663523
    vertex 171.86307225328537 140.8959257719302 10.100022407079765
    vertex 171.8631112934527 160.54589074287108 10.100041924178493
  endloop
endfacet
facet normal -9.627303309523154e-08 -7.686472391643092e-08 0.9999999999999925
  outer loop
    vertex 171.8631112934527 160.54589074287108 10.100041924178493
    vertex 171.86307225328537 140.8959257719302 10.100022407079765
    vertex 171.86307471578903 64.75000554766422 10.100074860867494
  endloop
endfacet
facet normal -9.627303309523154e-08 -7.686472391643092e-08 0.9999999999999925
  outer loop
    vertex 49.054411000224995 160.54589490530995 10.100005439958393
    vertex 46.25159053389355 160.54589490531342 10.099988791986526
    vertex 49.01752167171649 156.245931865193 10.100010493807838
  endloop
endfacet
facet normal -9.627303309523154e-08 -7.686472391643092e-08 0.9999999999999925
  outer loop
    vertex 28.01752004605351 160.54589072105833 10.100011787741936
    vertex 20.054446930754608 201.27353798802858 10.100112826733001
    vertex 3.1523219380606933e-10 204.1035996743429 10.100076426683158
  endloop
endfacet
facet normal -9.627303309523154e-08 -7.686472391643092e-08 0.9999999999999925
  outer loop
    vertex 20.054446930754608 201.27353798802858 10.100112826733001
    vertex 28.01752004605351 160.54589072105833 10.100011787741936
    vertex 46.25159053389355 160.54589490531342 10.099988791986526
  endloop
endfacet
facet normal -9.627303309523154e-08 -7.686472391643092e-08 0.9999999999999925
  outer loop
    vertex 46.25159053389355 160.54589490531342 10.099988791986526
    vertex 28.01752004605351 160.54589072105833 10.100011787741936
    vertex 28.017521671717834 140.89592576167746 10.100002698345685
  endloop
endfacet
facet normal -9.627303309523154e-08 -7.686472391643092e-08 0.9999999999999925
  outer loop
    vertex 46.25159053389355 160.54589490531342 10.099988791986526
    vertex 28.017521671717834 140.89592576167746 10.100002698345685
    vertex 28.01752167171995 80.10000785107195 10.099995484331613
  endloop
endfacet
facet normal -9.627303309523154e-08 -7.686472391643092e-08 0.9999999999999925
  outer loop
    vertex 46.25159053389355 160.54589490531342 10.099988791986526
    vertex 28.01752167171995 80.10000785107195 10.099995484331613
    vertex 28.017523786880865 60.424998078979364 10.100052114067557
  endloop
endfacet
facet normal -9.627303309523154e-08 -7.686472391643092e-08 0.9999999999999925
  outer loop
    vertex 46.25159053389355 160.54589490531342 10.099988791986526
    vertex 28.017523786880865 60.424998078979364 10.100052114067557
    vertex 46.2120311490121 60.42500304858088 10.10000406261334
  endloop
endfacet
facet normal -9.627303309523154e-08 -7.686472391643092e-08 0.9999999999999925
  outer loop
    vertex 46.25159053389355 160.54589490531342 10.099988791986526
    vertex 46.2120311490121 60.42500304858088 10.10000406261334
    vertex 49.054449179187365 60.425003048580756 10.100004337548759
  endloop
endfacet
facet normal -9.627303309523154e-08 -7.686472391643092e-08 0.9999999999999925
  outer loop
    vertex 46.25159053389355 160.54589490531342 10.099988791986526
    vertex 49.054449179187365 60.425003048580756 10.100004337548759
    vertex 49.01752167171964 64.75000174755645 10.099999636945245
  endloop
endfacet
facet normal -9.627303309523154e-08 -7.686472391643092e-08 0.9999999999999925
  outer loop
    vertex 46.25159053389355 160.54589490531342 10.099988791986526
    vertex 49.01752167171964 64.75000174755645 10.099999636945245
    vertex 49.0175216717191 80.10000785107198 10.100001458369508
  endloop
endfacet
facet normal -9.627303309523154e-08 -7.686472391643092e-08 0.9999999999999925
  outer loop
    vertex 46.25159053389355 160.54589490531342 10.099988791986526
    vertex 49.0175216717191 80.10000785107198 10.100001458369508
    vertex 49.01752167171649 156.245931865193 10.100010493807838
  endloop
endfacet
facet normal -9.627303309523154e-08 -7.686472391643092e-08 0.9999999999999925
  outer loop
    vertex 49.01752167171649 156.245931865193 10.100010493807838
    vertex 49.0175216717191 80.10000785107198 10.100001458369508
    vertex 49.01752167171703 140.89592576167746 10.100008672383575
  endloop
endfacet
facet normal -9.627303309523154e-08 -7.686472391643092e-08 0.9999999999999925
  outer loop
    vertex 49.01752167171964 64.75000174755645 10.099999636945245
    vertex 69.51752334007358 80.10000799571353 10.100008155688718
    vertex 49.0175216717191 80.10000785107198 10.100001458369508
  endloop
endfacet
facet normal -9.627303309523154e-08 -7.686472391643092e-08 0.9999999999999925
  outer loop
    vertex 69.51752334007358 80.10000799571353 10.100008155688718
    vertex 49.01752167171964 64.75000174755645 10.099999636945245
    vertex 82.3822965209132 64.75000132906078 10.100079047597639
  endloop
endfacet
facet normal -9.627303309523154e-08 -7.686472391643092e-08 0.9999999999999925
  outer loop
    vertex 49.01752167171703 140.89592576167746 10.100008672383575
    vertex 82.90545821360762 156.24592605100327 10.100093208576071
    vertex 49.01752167171649 156.245931865193 10.100010493807838
  endloop
endfacet
facet normal -9.627303309523154e-08 -7.686472391643092e-08 0.9999999999999925
  outer loop
    vertex 82.90545821360762 156.24592605100327 10.100093208576071
    vertex 49.01752167171703 140.89592576167746 10.100008672383575
    vertex 69.51752106856098 140.8959259063191 10.100013119260106
  endloop
endfacet
facet normal -9.627303309523154e-08 -7.686472391643092e-08 0.9999999999999925
  outer loop
    vertex 82.90545821360762 156.24592605100327 10.100093208576071
    vertex 69.51752106856098 140.8959259063191 10.100013119260106
    vertex 69.51752334007358 80.10000799571353 10.100008155688718
  endloop
endfacet
facet normal -9.627303309523154e-08 -7.686472391643092e-08 0.9999999999999925
  outer loop
    vertex 82.90545821360762 156.24592605100327 10.100093208576071
    vertex 69.51752334007358 80.10000799571353 10.100008155688718
    vertex 82.3822965209132 64.75000132906078 10.100079047597639
  endloop
endfacet
facet normal -9.627303309523154e-08 -7.686472391643092e-08 0.9999999999999925
  outer loop
    vertex 20.0175216717177 140.8959257616772 10.100002700803968
    vertex 20.054446170444585 160.54589072105787 10.10001708865349
    vertex 20.01752167171767 156.24593186519297 10.100002243945987
  endloop
endfacet
facet normal -9.627303309523154e-08 -7.686472391643092e-08 0.9999999999999925
  outer loop
    vertex 20.054446170444585 160.54589072105787 10.10001708865349
    vertex 20.0175216717177 140.8959257616772 10.100002700803968
    vertex 28.017521671717834 140.89592576167746 10.100002698345685
  endloop
endfacet
facet normal -9.627303309523154e-08 -7.686472391643092e-08 0.9999999999999925
  outer loop
    vertex 20.054446170444585 160.54589072105787 10.10001708865349
    vertex 28.017521671717834 140.89592576167746 10.100002698345685
    vertex 28.01752004605351 160.54589072105833 10.100011787741936
  endloop
endfacet
facet normal -9.627303309523154e-08 -7.686472391643092e-08 0.9999999999999925
  outer loop
    vertex 20.054449462897445 64.7500017475564 10.099975204980728
    vertex 28.01752167171995 80.10000785107195 10.099995484331613
    vertex 20.05444946289708 80.10000785107133 10.099991014543605
  endloop
endfacet
facet normal -9.627303309523154e-08 -7.686472391643092e-08 0.9999999999999925
  outer loop
    vertex 28.01752167171995 80.10000785107195 10.099995484331613
    vertex 20.054449462897445 64.7500017475564 10.099975204980728
    vertex 20.05444991125474 60.424998077824576 10.100026293252437
  endloop
endfacet
facet normal -9.627303309523154e-08 -7.686472391643092e-08 0.9999999999999925
  outer loop
    vertex 28.01752167171995 80.10000785107195 10.099995484331613
    vertex 20.05444991125474 60.424998077824576 10.100026293252437
    vertex 28.017523786880865 60.424998078979364 10.100052114067557
  endloop
endfacet
facet normal -9.627303309523154e-08 -7.686472391643092e-08 0.9999999999999925
  outer loop
    vertex 20.05444946289599 1.7475562323045865e-06 10.10000221697213
    vertex 3.895589462843011e-12 17.232676376048605 10.100004562760443
    vertex 0.0 1.7475571079041792e-06 10.100009509344414
  endloop
endfacet
facet normal -9.627303309523154e-08 -7.686472391643092e-08 0.9999999999999925
  outer loop
    vertex 3.895589462843011e-12 17.232676376048605 10.100004562760443
    vertex 20.05444946289599 1.7475562323045865e-06 10.10000221697213
    vertex 20.054449462898006 20.10000174753494 10.099973727163965
  endloop
endfacet
facet normal -9.627303309523154e-08 -7.686472391643092e-08 0.9999999999999925
  outer loop
    vertex 3.895589462843011e-12 17.232676376048605 10.100004562760443
    vertex 20.054449462898006 20.10000174753494 10.099973727163965
    vertex 28.017523786880865 60.424998078979364 10.100052114067557
  endloop
endfacet
facet normal -9.627303309523154e-08 -7.686472391643092e-08 0.9999999999999925
  outer loop
    vertex 28.017523786880865 60.424998078979364 10.100052114067557
    vertex 20.054449462898006 20.10000174753494 10.099973727163965
    vertex 46.2120311490121 60.42500304858088 10.10000406261334
  endloop
endfacet
facet normal -9.627303309523154e-08 -7.686472391643092e-08 0.9999999999999925
  outer loop
    vertex 200.89999999999682 140.8959257616786 10.100031334802853
    vertex 192.86307220882404 160.54589074588944 10.100041112383396
    vertex 192.86307220882057 140.89592576167783 10.100049593277115
  endloop
endfacet
facet normal -9.627303309523154e-08 -7.686472391643092e-08 0.9999999999999925
  outer loop
    vertex 192.86307220882404 160.54589074588944 10.100041112383396
    vertex 200.89999999999682 140.8959257616786 10.100031334802853
    vertex 200.86307220881966 156.24593186519337 10.10005369052533
  endloop
endfacet
facet normal -9.627303309523154e-08 -7.686472391643092e-08 0.9999999999999925
  outer loop
    vertex 192.8630722088044 60.42499810267001 10.10005319674906
    vertex 192.86307220882273 80.10000785107196 10.100042379263044
    vertex 192.86307220882057 140.89592576167783 10.100049593277115
  endloop
endfacet
facet normal -9.627303309523154e-08 -7.686472391643092e-08 0.9999999999999925
  outer loop
    vertex 192.86307220882273 80.10000785107196 10.100042379263044
    vertex 192.8630722088044 60.42499810267001 10.10005319674906
    vertex 200.8815364062993 60.4249981038068 10.100045576309519
  endloop
endfacet
facet normal -9.627303309523154e-08 -7.686472391643092e-08 0.9999999999999925
  outer loop
    vertex 192.86307220882273 80.10000785107196 10.100042379263044
    vertex 200.8815364062993 60.4249981038068 10.100045576309519
    vertex 200.86307220882327 64.75000174755645 10.100040557838787
  endloop
endfacet
facet normal -9.627303309523154e-08 -7.686472391643092e-08 0.9999999999999925
  outer loop
    vertex 200.89999999999893 80.10000785107272 10.100024120788788
    vertex 192.86307220882273 80.10000785107196 10.100042379263044
    vertex 200.86307220882327 64.75000174755645 10.100040557838787
  endloop
endfacet
facet normal -9.627303309523154e-08 -7.686472391643092e-08 0.9999999999999925
  outer loop
    vertex 200.88153551943728 160.54589074704128 10.100039236748025
    vertex 192.86307220882404 160.54589074588944 10.100041112383396
    vertex 200.86307220881966 156.24593186519337 10.10005369052533
  endloop
endfacet
facet normal -0.8410367271816833 -0.5409780249962385 -1.6407848243204553e-06
  outer loop
    vertex 3.1523219380606933e-10 204.1035996743429 10.100076426683158
    vertex 28.017531033507396 160.54590427251293 3.331455513622961e-05
    vertex 28.01752004605351 160.54589072105833 10.100011787741936
  endloop
endfacet
facet normal -0.8410367271816833 -0.5409780249962385 -1.6407848243204553e-06
  outer loop
    vertex 28.017531033507396 160.54590427251293 3.331455513622961e-05
    vertex 3.1523219380606933e-10 204.1035996743429 10.100076426683158
    vertex 1.0987769116907894e-05 204.1036132257974 9.795349635899064e-05
  endloop
endfacet
facet normal 8.39344550146756e-13 0.9999999999991 1.341731038703646e-06
  outer loop
    vertex 20.05445715789847 160.5459042725125 3.86154666901034e-05
    vertex 28.01752004605351 160.54589072105833 10.100011787741936
    vertex 28.017531033507396 160.54590427251293 3.331455513622961e-05
  endloop
endfacet
facet normal 8.39344550146756e-13 0.9999999999991 1.341731038703646e-06
  outer loop
    vertex 28.01752004605351 160.54589072105833 10.100011787741936
    vertex 20.05445715789847 160.5459042725125 3.86154666901034e-05
    vertex 20.054446170444585 160.54589072105787 10.10001708865349
  endloop
endfacet
facet normal -0.999963132252016 0.008586858306659206 -1.0763076783110924e-06
  outer loop
    vertex 20.054446170444585 160.54589072105787 10.10001708865349
    vertex 20.017532659171557 156.24594541664757 2.3770759186922395e-05
    vertex 20.01752167171767 156.24593186519297 10.100002243945987
  endloop
endfacet
facet normal -0.99999078283254 0.0042935125012196745 -6.049984223384715e-07
  outer loop
    vertex 20.017532659171557 156.24594541664757 2.3770759186922395e-05
    vertex 20.054446170444585 160.54589072105787 10.10001708865349
    vertex 20.05445715789847 160.5459042725125 3.86154666901034e-05
  endloop
endfacet
facet normal 0.8383196376979966 0.5451790394442249 -7.563901920315634e-07
  outer loop
    vertex 220.99998695083264 17.15896235026771 4.652326439702481e-06
    vertex 192.8630722088044 60.42499810267001 10.10005319674906
    vertex 220.9999999999172 17.158956297611788 10.099980598030836
  endloop
endfacet
facet normal 0.8383196376979966 0.5451790394442249 -7.563901920315634e-07
  outer loop
    vertex 192.8630722088044 60.42499810267001 10.10005319674906
    vertex 220.99998695083264 17.15896235026771 4.652326439702481e-06
    vertex 192.86305915971974 60.425004155325915 7.725104466559384e-05
  endloop
endfacet
facet normal 1.4120137311256007e-10 -0.9999999999998205 -5.992742910303365e-07
  outer loop
    vertex 200.8815364062993 60.4249981038068 10.100045576309519
    vertex 192.86305915971974 60.425004155325915 7.725104466559384e-05
    vertex 200.88152335721463 60.425004156462705 6.963060512142905e-05
  endloop
endfacet
facet normal 1.4120137311256007e-10 -0.9999999999998205 -5.992742910303365e-07
  outer loop
    vertex 192.86305915971974 60.425004155325915 7.725104466559384e-05
    vertex 200.8815364062993 60.4249981038068 10.100045576309519
    vertex 192.8630722088044 60.42499810267001 10.10005319674906
  endloop
endfacet
facet normal 0.9999908875878952 0.004269044343996272 -1.250127174932104e-06
  outer loop
    vertex 200.88152335721463 60.425004156462705 6.963060512142905e-05
    vertex 200.86307220882327 64.75000174755645 10.100040557838787
    vertex 200.8815364062993 60.4249981038068 10.100045576309519
  endloop
endfacet
facet normal 0.9999995661786908 0.000931472798789983 -9.248982315364673e-07
  outer loop
    vertex 200.86307220882327 64.75000174755645 10.100040557838787
    vertex 200.88152335721463 60.425004156462705 6.963060512142905e-05
    vertex 200.86305987378933 64.75002647087425 6.887159876126562e-05
  endloop
endfacet
facet normal 1.3505234641512704e-10 -0.9999999999952774 3.073324467589731e-06
  outer loop
    vertex 28.01758770151704 60.424967038581705 0.00011049866995135326
    vertex 20.05444991125474 60.424998077824576 10.100026293252437
    vertex 20.054513825890933 60.42496703742692 8.46778548292515e-05
  endloop
endfacet
facet normal 1.3505234641512704e-10 -0.9999999999952774 3.073324467589731e-06
  outer loop
    vertex 20.05444991125474 60.424998077824576 10.100026293252437
    vertex 28.01758770151704 60.424967038581705 0.00011049866995135326
    vertex 28.017523786880865 60.424998078979364 10.100052114067557
  endloop
endfacet
facet normal 0.8403082931218672 -0.5421088198049396 5.567201177029247e-07
  outer loop
    vertex 221.0000051531323 204.1601829497274 5.4487291355426176e-05
    vertex 192.86307220882404 160.54589074588944 10.100041112383396
    vertex 192.86307736206354 160.54588836156086 3.6955925147502675e-05
  endloop
endfacet
facet normal 0.8403082931218672 -0.5421088198049396 5.567201177029247e-07
  outer loop
    vertex 192.86307220882404 160.54589074588944 10.100041112383396
    vertex 221.0000051531323 204.1601829497274 5.4487291355426176e-05
    vertex 220.99999999989276 204.16018533405614 10.100058643749605
  endloop
endfacet
facet normal -0.999999999974325 -6.099869293478002e-06 -3.760527540948111e-06
  outer loop
    vertex 20.05444991125474 60.424998077824576 10.100026293252437
    vertex 20.05446151078884 64.7500022673054 1.3962899558973686e-05
    vertex 20.054513825890933 60.42496703742692 8.46778548292515e-05
  endloop
endfacet
facet normal -0.999999999974325 -6.099869293478002e-06 -3.760527540948111e-06
  outer loop
    vertex 20.05446151078884 64.7500022673054 1.3962899558973686e-05
    vertex 20.05444991125474 60.424998077824576 10.100026293252437
    vertex 20.054449462897445 64.7500017475564 10.099975204980728
  endloop
endfacet
facet normal 0.9999907739798862 -0.004295573890355683 -2.462741172600156e-07
  outer loop
    vertex 200.88154067267678 160.54588836271267 3.508028977461941e-05
    vertex 200.86307220881966 156.24593186519337 10.10005369052533
    vertex 200.8630619767558 156.24591003065945 5.808644752255782e-05
  endloop
endfacet
facet normal 0.9999995536634383 -0.0009448135949685905 -4.4146831535363363e-07
  outer loop
    vertex 200.86307220881966 156.24593186519337 10.10005369052533
    vertex 200.88154067267678 160.54588836271267 3.508028977461941e-05
    vertex 200.88153551943728 160.54589074704128 10.100039236748025
  endloop
endfacet
facet normal -1.4370272333148982e-10 0.9999999999999722 -2.3607204230823068e-07
  outer loop
    vertex 192.86307736206354 160.54588836156086 3.6955925147502675e-05
    vertex 200.88153551943728 160.54589074704128 10.100039236748025
    vertex 200.88154067267678 160.54588836271267 3.508028977461941e-05
  endloop
endfacet
facet normal -1.4370272333148982e-10 0.9999999999999722 -2.3607204230823068e-07
  outer loop
    vertex 200.88153551943728 160.54589074704128 10.100039236748025
    vertex 192.86307736206354 160.54588836156086 3.6955925147502675e-05
    vertex 192.86307220882404 160.54589074588944 10.100041112383396
  endloop
endfacet
facet normal -0.8389534593086165 0.544203172597664 -6.981593626980667e-06
  outer loop
    vertex 3.895589462843011e-12 17.232676376048605 10.100004562760443
    vertex 28.01758770151704 60.424967038581705 0.00011049866995135326
    vertex 6.391464008138518e-05 17.23264533565093 6.294736283724012e-05
  endloop
endfacet
facet normal -0.8389534593086165 0.544203172597664 -6.981593626980667e-06
  outer loop
    vertex 28.01758770151704 60.424967038581705 0.00011049866995135326
    vertex 3.895589462843011e-12 17.232676376048605 10.100004562760443
    vertex 28.017523786880865 60.424998078979364 10.100052114067557
  endloop
endfacet
endsolid bed_fras
