solid heated_bed_bottom
facet normal -0.9999999999998619 -1.9146335184621223e-09 5.256776465520939e-07
  outer loop
    vertex -3.0000002011551454 217.9999999403191 4.999999999999989
    vertex -3.0 -3.0 0.0
    vertex -3.0000002011551454 -3.0000000596808065 4.999999999999989
  endloop
endfacet
facet normal -0.9999999999998619 -1.9146335184621223e-09 5.256776465520939e-07
  outer loop
    vertex -3.0 -3.0 0.0
    vertex -3.0000002011551454 217.9999999403191 4.999999999999989
    vertex -3.0 217.99999999999991 0.0
  endloop
endfacet
facet normal -2.4957977561369726e-68 -1.0 0.0
  outer loop
    vertex 217.9999997988443 -3.000000059680716 4.999999999999989
    vertex -3.0 -3.0 0.0
    vertex 217.99999999999946 -2.99999999999991 0.0
  endloop
endfacet
facet normal -2.4957977561369726e-68 -1.0 0.0
  outer loop
    vertex -3.0 -3.0 0.0
    vertex 217.9999997988443 -3.000000059680716 4.999999999999989
    vertex -3.0000002011551454 -3.0000000596808065 4.999999999999989
  endloop
endfacet
facet normal 1.5466337652428923e-09 2.6821469247309652e-08 -0.9999999999999998
  outer loop
    vertex -3.0 217.99999999999991 0.0
    vertex 17.054449628742006 198.29999943498956 1.929311428165125e-06
    vertex -3.0 -3.0 0.0
  endloop
endfacet
facet normal 1.5466337652428923e-09 2.6821469247309652e-08 -0.9999999999999998
  outer loop
    vertex 17.054449628742006 198.29999943498956 1.929311428165125e-06
    vertex -3.0 217.99999999999991 0.0
    vertex 217.99999999999946 217.99999999999986 0.0
  endloop
endfacet
facet normal 1.5466337652428923e-09 2.6821469247309652e-08 -0.9999999999999998
  outer loop
    vertex 17.054449628742006 198.29999943498956 1.929311428165125e-06
    vertex 217.99999999999946 217.99999999999986 0.0
    vertex 197.9000001658472 198.29999943498956 8.060599741047907e-06
  endloop
endfacet
facet normal 1.5466337652428923e-09 2.6821469247309652e-08 -0.9999999999999998
  outer loop
    vertex 197.9000001658472 198.29999943498956 8.060599741047907e-06
    vertex 217.99999999999946 217.99999999999986 0.0
    vertex 197.9000001658472 157.5709265008614 1.959789210944997e-05
  endloop
endfacet
facet normal 1.5466337652428923e-09 2.6821469247309652e-08 -0.9999999999999998
  outer loop
    vertex 197.9000001658472 157.5709265008614 1.959789210944997e-05
    vertex 217.99999999999946 217.99999999999986 0.0
    vertex 217.99999946281235 137.8959245512372 1.2720165041715802e-05
  endloop
endfacet
facet normal 1.5466337652428923e-09 2.6821469247309652e-08 -0.9999999999999998
  outer loop
    vertex 17.05444962874209 157.57092650086142 5.7338561516498065e-06
    vertex 17.054450008372978 133.57092688764314 3.754487907348114e-06
    vertex 17.054449759335252 57.425003571966315 4.325229620880111e-06
  endloop
endfacet
facet normal 1.5466337652428923e-09 2.6821469247309652e-08 -0.9999999999999998
  outer loop
    vertex 17.054450008372978 133.57092688764314 3.754487907348114e-06
    vertex 17.05444962874209 157.57092650086142 5.7338561516498065e-06
    vertex 197.9000001658472 157.5709265008614 1.959789210944997e-05
  endloop
endfacet
facet normal 1.5466337652428923e-09 2.6821469247309652e-08 -0.9999999999999998
  outer loop
    vertex 17.054450008372978 133.57092688764314 3.754487907348114e-06
    vertex 197.9000001658472 157.5709265008614 1.959789210944997e-05
    vertex 56.554450010858595 133.57092688764428 9.715163025458827e-06
  endloop
endfacet
facet normal 1.5466337652428923e-09 2.6821469247309652e-08 -0.9999999999999998
  outer loop
    vertex 56.554450010858595 133.57092688764428 9.715163025458827e-06
    vertex 197.9000001658472 157.5709265008614 1.959789210944997e-05
    vertex 92.55445013073447 137.8959243002001 -2.0247745144308382e-05
  endloop
endfacet
facet normal 1.5466337652428923e-09 2.6821469247309652e-08 -0.9999999999999998
  outer loop
    vertex 56.554450010858595 133.57092688764428 9.715163025458827e-06
    vertex 92.55445013073447 137.8959243002001 -2.0247745144308382e-05
    vertex 56.554450010858666 81.42500287352432 1.4034829870124276e-05
  endloop
endfacet
facet normal 1.5466337652428923e-09 2.6821469247309652e-08 -0.9999999999999998
  outer loop
    vertex 92.55445013073447 137.8959243002001 -2.0247745144308382e-05
    vertex 197.9000001658472 157.5709265008614 1.959789210944997e-05
    vertex 160.90000089268258 137.89592430020005 1.2509882745703748e-06
  endloop
endfacet
facet normal 1.5466337652428923e-09 2.6821469247309652e-08 -0.9999999999999998
  outer loop
    vertex 160.90000089268258 137.89592430020005 1.2509882745703748e-06
    vertex 197.9000001658472 157.5709265008614 1.959789210944997e-05
    vertex 160.90000089268258 77.1000063895942 -5.712495507914639e-06
  endloop
endfacet
facet normal 1.5466337652428923e-09 2.6821469247309652e-08 -0.9999999999999998
  outer loop
    vertex 160.90000089268258 77.1000063895942 -5.712495507914639e-06
    vertex 197.9000001658472 157.5709265008614 1.959789210944997e-05
    vertex 197.8999994628097 137.8959245512372 1.2648540314399247e-05
  endloop
endfacet
facet normal 1.5466337652428923e-09 2.6821469247309652e-08 -0.9999999999999998
  outer loop
    vertex 197.8999994628097 137.8959245512372 1.2648540314399247e-05
    vertex 197.9000001658472 157.5709265008614 1.959789210944997e-05
    vertex 217.99999946281235 137.8959245512372 1.2720165041715802e-05
  endloop
endfacet
facet normal 1.5466337652428923e-09 2.6821469247309652e-08 -0.9999999999999998
  outer loop
    vertex 17.054449759335252 57.425003571966315 4.325229620880111e-06
    vertex 17.054450008375273 81.42500287352358 5.631017829998974e-06
    vertex 197.90000029643738 57.42500357196417 2.7710030940683583e-05
  endloop
endfacet
facet normal 1.5466337652428923e-09 2.6821469247309652e-08 -0.9999999999999998
  outer loop
    vertex 17.054450008375273 81.42500287352358 5.631017829998974e-06
    vertex 17.054449759335252 57.425003571966315 4.325229620880111e-06
    vertex 17.054450008372978 133.57092688764314 3.754487907348114e-06
  endloop
endfacet
facet normal 1.5466337652428923e-09 2.6821469247309652e-08 -0.9999999999999998
  outer loop
    vertex 197.90000029643738 57.42500357196417 2.7710030940683583e-05
    vertex 17.054450008375273 81.42500287352358 5.631017829998974e-06
    vertex 56.554450010858666 81.42500287352432 1.4034829870124276e-05
  endloop
endfacet
facet normal 1.5466337652428923e-09 2.6821469247309652e-08 -0.9999999999999998
  outer loop
    vertex 197.90000029643738 57.42500357196417 2.7710030940683583e-05
    vertex 56.554450010858666 81.42500287352432 1.4034829870124276e-05
    vertex 92.55445035557604 77.10000638959413 -2.516517984356703e-05
  endloop
endfacet
facet normal 1.5466337652428923e-09 2.6821469247309652e-08 -0.9999999999999998
  outer loop
    vertex 92.55445035557604 77.10000638959413 -2.516517984356703e-05
    vertex 56.554450010858666 81.42500287352432 1.4034829870124276e-05
    vertex 92.55445013073447 137.8959243002001 -2.0247745144308382e-05
  endloop
endfacet
facet normal 1.5466337652428923e-09 2.6821469247309652e-08 -0.9999999999999998
  outer loop
    vertex 197.90000029643738 57.42500357196417 2.7710030940683583e-05
    vertex 92.55445035557604 77.10000638959413 -2.516517984356703e-05
    vertex 93.554450355576 77.10000638959413 -2.4880701844764983e-05
  endloop
endfacet
facet normal 1.5466337652428923e-09 2.6821469247309652e-08 -0.9999999999999998
  outer loop
    vertex 197.90000029643738 57.42500357196417 2.7710030940683583e-05
    vertex 93.554450355576 77.10000638959413 -2.4880701844764983e-05
    vertex 160.90000089268258 77.1000063895942 -5.712495507914639e-06
  endloop
endfacet
facet normal 1.5466337652428923e-09 2.6821469247309652e-08 -0.9999999999999998
  outer loop
    vertex 197.90000029643738 57.42500357196417 2.7710030940683583e-05
    vertex 160.90000089268258 77.1000063895942 -5.712495507914639e-06
    vertex 197.89999946281182 77.10000664063136 5.434526248417702e-06
  endloop
endfacet
facet normal 1.5466337652428923e-09 2.6821469247309652e-08 -0.9999999999999998
  outer loop
    vertex 197.89999946281182 77.10000664063136 5.434526248417702e-06
    vertex 160.90000089268258 77.1000063895942 -5.712495507914639e-06
    vertex 197.8999994628097 137.8959245512372 1.2648540314399247e-05
  endloop
endfacet
facet normal 1.5466337652428923e-09 2.6821469247309652e-08 -0.9999999999999998
  outer loop
    vertex 197.90000029643738 57.42500357196417 2.7710030940683583e-05
    vertex 197.89999946281182 77.10000664063136 5.434526248417702e-06
    vertex 217.99999946281235 77.10000664063134 -1.8353835742140888e-06
  endloop
endfacet
facet normal 1.5466337652428923e-09 2.6821469247309652e-08 -0.9999999999999998
  outer loop
    vertex -3.0 -3.0 0.0
    vertex 17.054449759335817 17.100000520186953 2.8474128641792217e-06
    vertex 217.99999999999946 -2.99999999999991 0.0
  endloop
endfacet
facet normal 1.5466337652428923e-09 2.6821469247309652e-08 -0.9999999999999998
  outer loop
    vertex 17.054449759335817 17.100000520186953 2.8474128641792217e-06
    vertex -3.0 -3.0 0.0
    vertex 17.05444962874209 157.57092650086142 5.7338561516498065e-06
  endloop
endfacet
facet normal 1.5466337652428923e-09 2.6821469247309652e-08 -0.9999999999999998
  outer loop
    vertex 17.05444962874209 157.57092650086142 5.7338561516498065e-06
    vertex -3.0 -3.0 0.0
    vertex 17.054449628742006 198.29999943498956 1.929311428165125e-06
  endloop
endfacet
facet normal 1.5466337652428923e-09 2.6821469247309652e-08 -0.9999999999999998
  outer loop
    vertex 17.054449759335817 17.100000520186953 2.8474128641792217e-06
    vertex 17.05444962874209 157.57092650086142 5.7338561516498065e-06
    vertex 17.054449759335252 57.425003571966315 4.325229620880111e-06
  endloop
endfacet
facet normal 1.5466337652428923e-09 2.6821469247309652e-08 -0.9999999999999998
  outer loop
    vertex 217.99999999999946 -2.99999999999991 0.0
    vertex 17.054449759335817 17.100000520186953 2.8474128641792217e-06
    vertex 197.90000029643707 17.100000520178853 1.520271148811314e-05
  endloop
endfacet
facet normal 1.5466337652428923e-09 2.6821469247309652e-08 -0.9999999999999998
  outer loop
    vertex 217.99999999999946 -2.99999999999991 0.0
    vertex 197.90000029643707 17.100000520178853 1.520271148811314e-05
    vertex 197.90000029643738 57.42500357196417 2.7710030940683583e-05
  endloop
endfacet
facet normal 1.5466337652428923e-09 2.6821469247309652e-08 -0.9999999999999998
  outer loop
    vertex 217.99999999999946 -2.99999999999991 0.0
    vertex 197.90000029643738 57.42500357196417 2.7710030940683583e-05
    vertex 217.99999946281235 77.10000664063134 -1.8353835742140888e-06
  endloop
endfacet
facet normal 0.999999999999996 3.353230669418629e-09 -8.9531183233011e-08
  outer loop
    vertex 217.99999999999946 -2.99999999999991 0.0
    vertex 217.9999997988443 77.10000604383481 5.000007341534539
    vertex 217.9999997988443 -3.000000059680716 4.999999999999989
  endloop
endfacet
facet normal 0.999999999999996 3.353230669418629e-09 -8.9531183233011e-08
  outer loop
    vertex 217.9999997988443 77.10000604383481 5.000007341534539
    vertex 217.99999999999946 -2.99999999999991 0.0
    vertex 217.99999946281235 77.10000664063134 -1.8353835742140888e-06
  endloop
endfacet
facet normal 2.4957977561369726e-68 1.0 0.0
  outer loop
    vertex -3.0000002011551454 217.9999999403191 4.999999999999989
    vertex 217.99999999999946 217.99999999999986 0.0
    vertex -3.0 217.99999999999991 0.0
  endloop
endfacet
facet normal 2.4957977561369726e-68 1.0 0.0
  outer loop
    vertex 217.99999999999946 217.99999999999986 0.0
    vertex -3.0000002011551454 217.9999999403191 4.999999999999989
    vertex 217.9999997988443 217.99999994031904 4.999999999999989
  endloop
endfacet
facet normal 1.8122933676384106e-24 -0.999999999999984 -1.7903802639757618e-07
  outer loop
    vertex 217.99999946281235 137.8959245512372 1.2720165041715802e-05
    vertex 197.8999997988417 137.8959239544407 5.000021825458427
    vertex 197.8999994628097 137.8959245512372 1.2648540314399247e-05
  endloop
endfacet
facet normal 1.8122933676384106e-24 -0.999999999999984 -1.7903802639757618e-07
  outer loop
    vertex 197.8999997988417 137.8959239544407 5.000021825458427
    vertex 217.99999946281235 137.8959245512372 1.2720165041715802e-05
    vertex 217.9999997988443 137.89592395444063 5.000021897083156
  endloop
endfacet
facet normal 6.356751173809913e-14 0.999999999999984 1.7903802639756477e-07
  outer loop
    vertex 197.89999946281182 77.10000664063136 5.434526248417702e-06
    vertex 217.9999997988443 77.10000604383481 5.000007341534539
    vertex 217.99999946281235 77.10000664063134 -1.8353835742140888e-06
  endloop
endfacet
facet normal 6.356751173809913e-14 0.999999999999984 1.7903802639756477e-07
  outer loop
    vertex 217.9999997988443 77.10000604383481 5.000007341534539
    vertex 197.89999946281182 77.10000664063136 5.434526248417702e-06
    vertex 197.8999997988438 77.10000604383482 5.000014611444362
  endloop
endfacet
facet normal 0.999999999999996 -3.353076568910058e-09 -8.953118383335283e-08
  outer loop
    vertex 217.99999946281235 137.8959245512372 1.2720165041715802e-05
    vertex 217.9999997988443 217.99999994031904 4.999999999999989
    vertex 217.9999997988443 137.89592395444063 5.000021897083156
  endloop
endfacet
facet normal 0.999999999999996 -3.353076568910058e-09 -8.953118383335283e-08
  outer loop
    vertex 217.9999997988443 217.99999994031904 4.999999999999989
    vertex 217.99999946281235 137.8959245512372 1.2720165041715802e-05
    vertex 217.99999999999946 217.99999999999986 0.0
  endloop
endfacet
facet normal 0.999999999999984 5.612826301476065e-14 -1.7906181829138714e-07
  outer loop
    vertex 197.89999946281182 77.10000664063136 5.434526248417702e-06
    vertex 197.8999997988417 137.8959239544407 5.000021825458427
    vertex 197.8999997988438 77.10000604383482 5.000014611444362
  endloop
endfacet
facet normal 0.999999999999984 5.612826301476065e-14 -1.7906181829138714e-07
  outer loop
    vertex 197.8999997988417 137.8959239544407 5.000021825458427
    vertex 197.89999946281182 77.10000664063136 5.434526248417702e-06
    vertex 197.8999994628097 137.8959245512372 1.2648540314399247e-05
  endloop
endfacet
facet normal 0.9999999999999984 7.241146123200183e-15 5.528287595262765e-08
  outer loop
    vertex 17.054449628742006 198.29999943498956 1.929311428165125e-06
    vertex 17.0544492617391 157.5709270061984 4.999991564081231
    vertex 17.05444962874209 157.57092650086142 5.7338561516498065e-06
  endloop
endfacet
facet normal 0.9999999999999984 7.241146123200183e-15 5.528287595262765e-08
  outer loop
    vertex 17.0544492617391 157.5709270061984 4.999991564081231
    vertex 17.054449628742006 198.29999943498956 1.929311428165125e-06
    vertex 17.054449261739016 198.2999999403265 4.999987759536506
  endloop
endfacet
facet normal 0.9999999999999557 3.6982765186006395e-09 2.975597823400473e-07
  outer loop
    vertex 92.55445035557604 77.10000638959413 -2.516517984356703e-05
    vertex 92.55444903689701 137.89592395444063 4.999989632012974
    vertex 92.55444926173857 77.10000604383467 4.999984714578274
  endloop
endfacet
facet normal 0.9999999999999557 3.6982765186006395e-09 2.975597823400473e-07
  outer loop
    vertex 92.55444903689701 137.89592395444063 4.999989632012974
    vertex 92.55445035557604 77.10000638959413 -2.516517984356703e-05
    vertex 92.55445013073447 137.8959243002001 -2.0247745144308382e-05
  endloop
endfacet
facet normal -2.7127606747777486e-14 0.9999999999999954 9.535924346350921e-08
  outer loop
    vertex 92.55444926173857 77.10000604383467 4.999984714578274
    vertex 93.554450355576 77.10000638959413 -2.4880701844764983e-05
    vertex 92.55445035557604 77.10000638959413 -2.516517984356703e-05
  endloop
endfacet
facet normal -2.7127606747777486e-14 0.9999999999999954 9.535924346350921e-08
  outer loop
    vertex 93.554450355576 77.10000638959413 -2.4880701844764983e-05
    vertex 92.55444926173857 77.10000604383467 4.999984714578274
    vertex 93.55444926173853 77.10000604383467 4.999984999056273
  endloop
endfacet
facet normal -3.8089597360902477e-10 -0.9999999999999976 -7.019312486172715e-08
  outer loop
    vertex 160.90000089268258 137.89592430020005 1.2509882745703748e-06
    vertex 92.55444903689701 137.89592395444063 4.999989632012974
    vertex 92.55445013073447 137.8959243002001 -2.0247745144308382e-05
  endloop
endfacet
facet normal -3.8089597360902477e-10 -0.9999999999999976 -7.019312486172715e-08
  outer loop
    vertex 92.55444903689701 137.89592395444063 4.999989632012974
    vertex 160.90000089268258 137.89592430020005 1.2509882745703748e-06
    vertex 160.9000000000004 137.89592401412142 3.0000111307464015
  endloop
endfacet
facet normal -3.8089597360902477e-10 -0.9999999999999976 -7.019312486172715e-08
  outer loop
    vertex 92.55444903689701 137.89592395444063 4.999989632012974
    vertex 160.9000000000004 137.89592401412142 3.0000111307464015
    vertex 160.89999979884527 137.89592395444058 5.000011130746391
  endloop
endfacet
facet normal -0.9999999999999984 -1.565993666752993e-14 -5.5282875952626056e-08
  outer loop
    vertex 197.89999979884433 157.57092700619833 5.000005428117189
    vertex 197.9000001658472 198.29999943498956 8.060599741047907e-06
    vertex 197.9000001658472 157.5709265008614 1.959789210944997e-05
  endloop
endfacet
facet normal -0.9999999999999984 -1.565993666752993e-14 -5.5282875952626056e-08
  outer loop
    vertex 197.9000001658472 198.29999943498956 8.060599741047907e-06
    vertex 197.89999979884433 157.57092700619833 5.000005428117189
    vertex 197.89999979884433 198.2999999403265 4.999993890824823
  endloop
endfacet
facet normal 1.0571856981000266e-14 -0.9999999999999851 -1.7340527157212093e-07
  outer loop
    vertex 197.90000029643738 57.42500357196417 2.7710030940683583e-05
    vertex 17.0544492617423 57.42500299207643 4.999965695636302
    vertex 17.054449759335252 57.425003571966315 4.325229620880111e-06
  endloop
endfacet
facet normal 1.0571856981000266e-14 -0.9999999999999851 -1.7340527157212093e-07
  outer loop
    vertex 17.0544492617423 57.42500299207643 4.999965695636302
    vertex 197.90000029643738 57.42500357196417 2.7710030940683583e-05
    vertex 197.89999979884433 57.42500299207428 4.999989080437617
  endloop
endfacet
facet normal -6.385380138817467e-15 -0.9999999999999822 1.883401215102733e-07
  outer loop
    vertex 197.9000001658472 198.29999943498956 8.060599741047907e-06
    vertex 17.054449261739016 198.2999999403265 4.999987759536506
    vertex 17.054449628742006 198.29999943498956 1.929311428165125e-06
  endloop
endfacet
facet normal -6.385380138817467e-15 -0.9999999999999822 1.883401215102733e-07
  outer loop
    vertex 17.054449261739016 198.2999999403265 4.999987759536506
    vertex 197.9000001658472 198.29999943498956 8.060599741047907e-06
    vertex 197.89999979884433 198.2999999403265 4.999993890824823
  endloop
endfacet
facet normal -0.9999999999999754 -1.287415623203928e-09 -2.2189789633013534e-07
  outer loop
    vertex 160.89999979884527 137.89592395444058 5.000011130746391
    vertex 160.90000089268258 77.1000063895942 -5.712495507914639e-06
    vertex 160.89999979884527 77.10000604383474 5.00000416726261
  endloop
endfacet
facet normal -0.9999999999999754 -1.287415623203928e-09 -2.2189789633013534e-07
  outer loop
    vertex 160.90000089268258 77.1000063895942 -5.712495507914639e-06
    vertex 160.89999979884527 137.89592395444058 5.000011130746391
    vertex 160.9000000000004 137.89592401412142 3.0000111307464015
  endloop
endfacet
facet normal -0.9999999999999754 -1.287415623203928e-09 -2.2189789633013534e-07
  outer loop
    vertex 160.90000089268258 77.1000063895942 -5.712495507914639e-06
    vertex 160.9000000000004 137.89592401412142 3.0000111307464015
    vertex 160.90000089268258 137.89592430020005 1.2509882745703748e-06
  endloop
endfacet
facet normal 0.9999999999999951 1.0364896746259179e-14 9.881387691370756e-08
  outer loop
    vertex 17.054449759335817 17.100000520186953 2.8474128641792217e-06
    vertex 17.0544492617423 57.42500299207643 4.999965695636302
    vertex 17.054449261742864 17.099999940297025 4.99996421781954
  endloop
endfacet
facet normal 0.9999999999999951 1.0364896746259179e-14 9.881387691370756e-08
  outer loop
    vertex 17.0544492617423 57.42500299207643 4.999965695636302
    vertex 17.054449759335817 17.100000520186953 2.8474128641792217e-06
    vertex 17.054449759335252 57.425003571966315 4.325229620880111e-06
  endloop
endfacet
facet normal -2.814654918200714e-14 0.9999999999999954 9.53592434635089e-08
  outer loop
    vertex 93.55444926173853 77.10000604383467 4.999984999056273
    vertex 160.90000089268258 77.1000063895942 -5.712495507914639e-06
    vertex 93.554450355576 77.10000638959413 -2.4880701844764983e-05
  endloop
endfacet
facet normal -2.814654918200714e-14 0.9999999999999954 9.53592434635089e-08
  outer loop
    vertex 160.90000089268258 77.1000063895942 -5.712495507914639e-06
    vertex 93.55444926173853 77.10000604383467 4.999984999056273
    vertex 160.89999979884527 77.10000604383474 5.00000416726261
  endloop
endfacet
facet normal -0.9999999999999951 3.848066591863422e-14 -9.88138769136991e-08
  outer loop
    vertex 197.89999979884433 57.42500299207428 4.999989080437617
    vertex 197.90000029643707 17.100000520178853 1.520271148811314e-05
    vertex 197.89999979884402 17.099999940288928 4.999976573118167
  endloop
endfacet
facet normal -0.9999999999999951 3.848066591863422e-14 -9.88138769136991e-08
  outer loop
    vertex 197.90000029643707 17.100000520178853 1.520271148811314e-05
    vertex 197.89999979884433 57.42500299207428 4.999989080437617
    vertex 197.90000029643738 57.42500357196417 2.7710030940683583e-05
  endloop
endfacet
facet normal 3.293677840752977e-14 0.9999999999999851 1.7340527157212527e-07
  outer loop
    vertex 17.054449261742864 17.099999940297025 4.99996421781954
    vertex 197.90000029643707 17.100000520178853 1.520271148811314e-05
    vertex 17.054449759335817 17.100000520186953 2.8474128641792217e-06
  endloop
endfacet
facet normal 3.293677840752977e-14 0.9999999999999851 1.7340527157212527e-07
  outer loop
    vertex 197.90000029643707 17.100000520178853 1.520271148811314e-05
    vertex 17.054449261742864 17.099999940297025 4.99996421781954
    vertex 197.89999979884402 17.099999940288928 4.999976573118167
  endloop
endfacet
facet normal 1.4688078709229058e-14 0.9999999999999822 -1.8834012151027284e-07
  outer loop
    vertex 17.0544492617391 157.5709270061984 4.999991564081231
    vertex 197.9000001658472 157.5709265008614 1.959789210944997e-05
    vertex 17.05444962874209 157.57092650086142 5.7338561516498065e-06
  endloop
endfacet
facet normal 1.4688078709229058e-14 0.9999999999999822 -1.8834012151027284e-07
  outer loop
    vertex 197.9000001658472 157.5709265008614 1.959789210944997e-05
    vertex 17.0544492617391 157.5709270061984 4.999991564081231
    vertex 197.89999979884433 157.57092700619833 5.000005428117189
  endloop
endfacet
facet normal 1.9591149876233407e-14 -0.9999999999999982 5.9412091046760846e-08
  outer loop
    vertex 56.554450010858595 133.57092688764428 9.715163025458827e-06
    vertex 17.054449261739144 133.57092700619594 4.999958830508368
    vertex 17.054450008372978 133.57092688764314 3.754487907348114e-06
  endloop
endfacet
facet normal 1.9591149876233407e-14 -0.9999999999999982 5.9412091046760846e-08
  outer loop
    vertex 17.054449261739144 133.57092700619594 4.999958830508368
    vertex 56.554450010858595 133.57092688764428 9.715163025458827e-06
    vertex 56.554449264224814 133.57092700619708 4.999964791183487
  endloop
endfacet
facet normal -6.492733445375799e-15 0.9999999999999982 -5.9412091046758464e-08
  outer loop
    vertex 17.054449261741436 81.42500299207639 4.999960707038292
    vertex 56.554450010858666 81.42500287352432 1.4034829870124276e-05
    vertex 17.054450008375273 81.42500287352358 5.631017829998974e-06
  endloop
endfacet
facet normal -6.492733445375799e-15 0.9999999999999982 -5.9412091046758464e-08
  outer loop
    vertex 56.554450010858666 81.42500287352432 1.4034829870124276e-05
    vertex 17.054449261741436 81.42500299207639 4.999960707038292
    vertex 56.55444926422486 81.42500299207713 4.999969110850334
  endloop
endfacet
facet normal -0.9999999999999836 -1.6143923782601236e-14 -1.8182895139879353e-07
  outer loop
    vertex 56.55444926422486 81.42500299207713 4.999969110850334
    vertex 56.554450010858595 133.57092688764428 9.715163025458827e-06
    vertex 56.554450010858666 81.42500287352432 1.4034829870124276e-05
  endloop
endfacet
facet normal -0.9999999999999836 -1.6143923782601236e-14 -1.8182895139879353e-07
  outer loop
    vertex 56.554450010858595 133.57092688764428 9.715163025458827e-06
    vertex 56.55444926422486 81.42500299207713 4.999969110850334
    vertex 56.554449264224814 133.57092700619708 4.999964791183487
  endloop
endfacet
facet normal 0.9999999999999836 5.050903341612061e-14 1.8182895139879144e-07
  outer loop
    vertex 17.054450008372978 133.57092688764314 3.754487907348114e-06
    vertex 17.054449261741436 81.42500299207639 4.999960707038292
    vertex 17.054450008375273 81.42500287352358 5.631017829998974e-06
  endloop
endfacet
facet normal 0.9999999999999836 5.050903341612061e-14 1.8182895139879144e-07
  outer loop
    vertex 17.054449261741436 81.42500299207639 4.999960707038292
    vertex 17.054450008372978 133.57092688764314 3.754487907348114e-06
    vertex 17.054449261739144 133.57092700619594 4.999958830508368
  endloop
endfacet
facet normal -1.0057757259577963e-07 -2.98404031745172e-08 0.9999999999999944
  outer loop
    vertex -3.0000002011551454 -3.0000000596808065 4.999999999999989
    vertex 17.054449261742864 17.099999940297025 4.99996421781954
    vertex -3.0000002011551454 217.9999999403191 4.999999999999989
  endloop
endfacet
facet normal -1.0057757259577963e-07 -2.98404031745172e-08 0.9999999999999944
  outer loop
    vertex 17.054449261742864 17.099999940297025 4.99996421781954
    vertex -3.0000002011551454 -3.0000000596808065 4.999999999999989
    vertex 217.9999997988443 -3.000000059680716 4.999999999999989
  endloop
endfacet
facet normal -1.0057757259577963e-07 -2.98404031745172e-08 0.9999999999999944
  outer loop
    vertex -3.0000002011551454 217.9999999403191 4.999999999999989
    vertex 17.054449261742864 17.099999940297025 4.99996421781954
    vertex 17.054449261739144 133.57092700619594 4.999958830508368
  endloop
endfacet
facet normal -1.0057757259577963e-07 -2.98404031745172e-08 0.9999999999999944
  outer loop
    vertex -3.0000002011551454 217.9999999403191 4.999999999999989
    vertex 17.054449261739144 133.57092700619594 4.999958830508368
    vertex 17.054449261739016 198.2999999403265 4.999987759536506
  endloop
endfacet
facet normal -1.0057757259577963e-07 -2.98404031745172e-08 0.9999999999999944
  outer loop
    vertex 17.054449261739016 198.2999999403265 4.999987759536506
    vertex 17.054449261739144 133.57092700619594 4.999958830508368
    vertex 17.0544492617391 157.5709270061984 4.999991564081231
  endloop
endfacet
facet normal -1.0057757259577963e-07 -2.98404031745172e-08 0.9999999999999944
  outer loop
    vertex 17.054449261739144 133.57092700619594 4.999958830508368
    vertex 17.054449261742864 17.099999940297025 4.99996421781954
    vertex 17.054449261741436 81.42500299207639 4.999960707038292
  endloop
endfacet
facet normal -1.0057757259577963e-07 -2.98404031745172e-08 0.9999999999999944
  outer loop
    vertex 17.054449261741436 81.42500299207639 4.999960707038292
    vertex 17.054449261742864 17.099999940297025 4.99996421781954
    vertex 17.0544492617423 57.42500299207643 4.999965695636302
  endloop
endfacet
facet normal -1.0057757259577963e-07 -2.98404031745172e-08 0.9999999999999944
  outer loop
    vertex 17.054449261742864 17.099999940297025 4.99996421781954
    vertex 217.9999997988443 -3.000000059680716 4.999999999999989
    vertex 197.89999979884402 17.099999940288928 4.999976573118167
  endloop
endfacet
facet normal -1.0057757259577963e-07 -2.98404031745172e-08 0.9999999999999944
  outer loop
    vertex 197.89999979884402 17.099999940288928 4.999976573118167
    vertex 217.9999997988443 -3.000000059680716 4.999999999999989
    vertex 197.89999979884433 57.42500299207428 4.999989080437617
  endloop
endfacet
facet normal -1.0057757259577963e-07 -2.98404031745172e-08 0.9999999999999944
  outer loop
    vertex 17.0544492617423 57.42500299207643 4.999965695636302
    vertex 56.55444926422486 81.42500299207713 4.999969110850334
    vertex 17.054449261741436 81.42500299207639 4.999960707038292
  endloop
endfacet
facet normal -1.0057757259577963e-07 -2.98404031745172e-08 0.9999999999999944
  outer loop
    vertex 56.55444926422486 81.42500299207713 4.999969110850334
    vertex 17.0544492617423 57.42500299207643 4.999965695636302
    vertex 197.89999979884433 57.42500299207428 4.999989080437617
  endloop
endfacet
facet normal -1.0057757259577963e-07 -2.98404031745172e-08 0.9999999999999944
  outer loop
    vertex 56.55444926422486 81.42500299207713 4.999969110850334
    vertex 197.89999979884433 57.42500299207428 4.999989080437617
    vertex 92.55444926173857 77.10000604383467 4.999984714578274
  endloop
endfacet
facet normal -1.0057757259577963e-07 -2.98404031745172e-08 0.9999999999999944
  outer loop
    vertex 56.55444926422486 81.42500299207713 4.999969110850334
    vertex 92.55444926173857 77.10000604383467 4.999984714578274
    vertex 92.55444903689701 137.89592395444063 4.999989632012974
  endloop
endfacet
facet normal -1.0057757259577963e-07 -2.98404031745172e-08 0.9999999999999944
  outer loop
    vertex 92.55444926173857 77.10000604383467 4.999984714578274
    vertex 197.89999979884433 57.42500299207428 4.999989080437617
    vertex 93.55444926173853 77.10000604383467 4.999984999056273
  endloop
endfacet
facet normal -1.0057757259577963e-07 -2.98404031745172e-08 0.9999999999999944
  outer loop
    vertex 93.55444926173853 77.10000604383467 4.999984999056273
    vertex 197.89999979884433 57.42500299207428 4.999989080437617
    vertex 160.89999979884527 77.10000604383474 5.00000416726261
  endloop
endfacet
facet normal -1.0057757259577963e-07 -2.98404031745172e-08 0.9999999999999944
  outer loop
    vertex 160.89999979884527 77.10000604383474 5.00000416726261
    vertex 197.89999979884433 57.42500299207428 4.999989080437617
    vertex 160.89999979884527 137.89592395444058 5.000011130746391
  endloop
endfacet
facet normal -1.0057757259577963e-07 -2.98404031745172e-08 0.9999999999999944
  outer loop
    vertex 160.89999979884527 137.89592395444058 5.000011130746391
    vertex 197.89999979884433 57.42500299207428 4.999989080437617
    vertex 197.8999997988417 137.8959239544407 5.000021825458427
  endloop
endfacet
facet normal -1.0057757259577963e-07 -2.98404031745172e-08 0.9999999999999944
  outer loop
    vertex 197.8999997988417 137.8959239544407 5.000021825458427
    vertex 197.89999979884433 57.42500299207428 4.999989080437617
    vertex 197.8999997988438 77.10000604383482 5.000014611444362
  endloop
endfacet
facet normal -1.0057757259577963e-07 -2.98404031745172e-08 0.9999999999999944
  outer loop
    vertex 197.8999997988438 77.10000604383482 5.000014611444362
    vertex 197.89999979884433 57.42500299207428 4.999989080437617
    vertex 217.9999997988443 77.10000604383481 5.000007341534539
  endloop
endfacet
facet normal -1.0057757259577963e-07 -2.98404031745172e-08 0.9999999999999944
  outer loop
    vertex 217.9999997988443 77.10000604383481 5.000007341534539
    vertex 197.89999979884433 57.42500299207428 4.999989080437617
    vertex 217.9999997988443 -3.000000059680716 4.999999999999989
  endloop
endfacet
facet normal -1.0057757259577963e-07 -2.98404031745172e-08 0.9999999999999944
  outer loop
    vertex 17.054449261739144 133.57092700619594 4.999958830508368
    vertex 197.89999979884433 157.57092700619833 5.000005428117189
    vertex 17.0544492617391 157.5709270061984 4.999991564081231
  endloop
endfacet
facet normal -1.0057757259577963e-07 -2.98404031745172e-08 0.9999999999999944
  outer loop
    vertex 197.89999979884433 157.57092700619833 5.000005428117189
    vertex 17.054449261739144 133.57092700619594 4.999958830508368
    vertex 56.554449264224814 133.57092700619708 4.999964791183487
  endloop
endfacet
facet normal -1.0057757259577963e-07 -2.98404031745172e-08 0.9999999999999944
  outer loop
    vertex 197.89999979884433 157.57092700619833 5.000005428117189
    vertex 56.554449264224814 133.57092700619708 4.999964791183487
    vertex 92.55444903689701 137.89592395444063 4.999989632012974
  endloop
endfacet
facet normal -1.0057757259577963e-07 -2.98404031745172e-08 0.9999999999999944
  outer loop
    vertex 92.55444903689701 137.89592395444063 4.999989632012974
    vertex 56.554449264224814 133.57092700619708 4.999964791183487
    vertex 56.55444926422486 81.42500299207713 4.999969110850334
  endloop
endfacet
facet normal -1.0057757259577963e-07 -2.98404031745172e-08 0.9999999999999944
  outer loop
    vertex 197.89999979884433 157.57092700619833 5.000005428117189
    vertex 92.55444903689701 137.89592395444063 4.999989632012974
    vertex 160.89999979884527 137.89592395444058 5.000011130746391
  endloop
endfacet
facet normal -1.0057757259577963e-07 -2.98404031745172e-08 0.9999999999999944
  outer loop
    vertex 197.89999979884433 157.57092700619833 5.000005428117189
    vertex 160.89999979884527 137.89592395444058 5.000011130746391
    vertex 197.8999997988417 137.8959239544407 5.000021825458427
  endloop
endfacet
facet normal -1.0057757259577963e-07 -2.98404031745172e-08 0.9999999999999944
  outer loop
    vertex 197.89999979884433 157.57092700619833 5.000005428117189
    vertex 197.8999997988417 137.8959239544407 5.000021825458427
    vertex 217.9999997988443 137.89592395444063 5.000021897083156
  endloop
endfacet
facet normal -1.0057757259577963e-07 -2.98404031745172e-08 0.9999999999999944
  outer loop
    vertex 197.89999979884433 157.57092700619833 5.000005428117189
    vertex 217.9999997988443 137.89592395444063 5.000021897083156
    vertex 197.89999979884433 198.2999999403265 4.999993890824823
  endloop
endfacet
facet normal -1.0057757259577963e-07 -2.98404031745172e-08 0.9999999999999944
  outer loop
    vertex 17.054449261739016 198.2999999403265 4.999987759536506
    vertex 217.9999997988443 217.99999994031904 4.999999999999989
    vertex -3.0000002011551454 217.9999999403191 4.999999999999989
  endloop
endfacet
facet normal -1.0057757259577963e-07 -2.98404031745172e-08 0.9999999999999944
  outer loop
    vertex 217.9999997988443 217.99999994031904 4.999999999999989
    vertex 17.054449261739016 198.2999999403265 4.999987759536506
    vertex 197.89999979884433 198.2999999403265 4.999993890824823
  endloop
endfacet
facet normal -1.0057757259577963e-07 -2.98404031745172e-08 0.9999999999999944
  outer loop
    vertex 217.9999997988443 217.99999994031904 4.999999999999989
    vertex 197.89999979884433 198.2999999403265 4.999993890824823
    vertex 217.9999997988443 137.89592395444063 5.000021897083156
  endloop
endfacet
endsolid heated_bed_bottom
